<svg width="24" height="22" viewBox="0 0 24 22" fill="none" xmlns="http://www.w3.org/2000/svg">
<path d="M15.6996 0.303876C15.9377 0.388901 16.2778 0.490932 16.4648 0.541947C16.6519 0.575957 16.992 0.677987 17.2301 0.763012L17.6552 0.933062C16.1928 6.39167 15.8867 7.90512 15.9207 8.27923C15.9547 8.60233 16.1417 9.09547 16.3118 9.36755C16.4818 9.63963 16.856 9.94572 17.145 10.0648C17.4341 10.1838 19.0326 10.6429 20.7161 11.0851C22.3996 11.5272 23.862 11.9693 23.947 12.0543C24.0661 12.1394 23.9811 12.6835 23.726 13.6018C23.5049 14.367 23.3179 15.0132 23.3009 15.0302C23.2839 15.0642 22.3826 14.8602 21.3113 14.5881C20.24 14.316 18.8115 13.9419 18.1653 13.7548C17.5191 13.5848 16.89 13.3977 16.8049 13.3467C16.7199 13.2957 15.7846 11.7823 14.7303 9.96273L12.8258 6.66375C14.1181 1.78331 14.5093 0.320882 14.5093 0.235857C14.5093 0.167836 14.6793 0.116821 14.8834 0.133826C15.1044 0.133826 15.4615 0.218851 15.6996 0.303876ZM9.49278 0.320882C9.5438 0.439917 9.91791 1.83433 10.343 3.4328C10.7682 5.01427 11.1083 6.44269 11.1083 6.57873C11.1083 6.71477 10.292 8.24522 9.30573 9.97973C8.30243 11.7142 7.45218 13.1767 7.38416 13.2447C7.33315 13.3127 5.8197 13.7378 4.05118 14.214C2.28265 14.6901 0.769207 15.0132 0.718191 14.9452C0.650171 14.8772 0.446112 14.214 0.259056 13.4658C0.0549965 12.7175 -0.0470333 12.0543 0.0209866 12.0033C0.0890064 11.9523 1.67047 11.4932 3.54103 10.983C6.07477 10.3028 7.06106 9.96273 7.41817 9.63963C7.69025 9.40156 7.97934 8.97644 8.06436 8.70436C8.2004 8.27923 8.06436 7.56502 7.28213 4.53813C6.75497 2.53153 6.36386 0.865042 6.38086 0.865042C6.41487 0.848037 7.01005 0.677987 7.70725 0.473926C8.40446 0.286871 9.08466 0.116821 9.2037 0.116821C9.32273 0.116821 9.45877 0.218852 9.49278 0.320882ZM18.3354 17.0878C19.6448 18.3632 20.6991 19.5025 20.6651 19.5876C20.6481 19.6896 20.1549 20.2338 19.5598 20.8119L18.5054 21.8832C14.1011 17.513 13.0638 16.6117 12.7237 16.5267C12.4346 16.4586 11.9075 16.4416 11.5334 16.4927C10.9382 16.5947 10.5471 16.9008 8.21741 19.2475L5.58163 21.8832L3.28595 19.5876L8.13238 14.7411H15.9547L18.3354 17.0878Z" fill="#0C0C0C"/>
</svg>
