<svg width="24" height="24" viewBox="0 0 24 24" fill="none" xmlns="http://www.w3.org/2000/svg">
<path d="M12 0C18.6273 0 24 5.37267 24 12C24 18.6273 18.6273 24 12 24C5.37267 24 0 18.6273 0 12C0 5.37267 5.37267 0 12 0Z" fill="#262925"/>
<path d="M12.0048 16.2169C9.67248 16.2169 7.78788 14.3271 7.78788 12C7.78788 9.67284 9.67768 7.78304 12.0048 7.78304C14.0924 7.78304 15.8261 9.30321 16.1592 11.2971H20.4074C20.0482 6.96569 16.4248 3.56091 11.9996 3.56091C7.34016 3.56091 3.56055 7.34052 3.56055 12C3.56055 16.6594 7.34016 20.439 11.9996 20.439C16.4248 20.439 20.0482 17.0342 20.4074 12.7028H16.154C15.8208 14.6967 14.0924 16.2169 12.0048 16.2169Z" fill="white"/>
</svg>
