<svg width="24" height="24" viewBox="0 0 24 24" fill="none" xmlns="http://www.w3.org/2000/svg">
<g clip-path="url(#clip0_344_73)">
<path d="M12.005 24.01C18.6352 24.01 24.01 18.6352 24.01 12.005C24.01 5.37482 18.6352 0 12.005 0C5.37482 0 0 5.37482 0 12.005C0 18.6352 5.37482 24.01 12.005 24.01Z" fill="#262925"/>
<path d="M11.0108 5.29413C10.6684 5.34119 10.118 5.45884 9.78781 5.56472C9.44536 5.6706 8.83385 5.97648 8.40579 6.23531C7.98997 6.49413 7.41515 6.98825 7.14608 7.32942C6.86479 7.65883 6.53457 8.15295 6.38781 8.41178C6.25328 8.6706 6.06982 9.15295 5.98421 9.4706C5.88637 9.80001 5.81299 10.3059 5.81299 10.6235C5.81299 10.9294 5.92306 11.5059 6.06982 11.9059C6.20436 12.3177 6.46119 12.8353 6.63241 13.0588C6.80364 13.2824 7.12162 13.6235 7.32954 13.8C7.53745 13.9765 8.02666 14.2824 8.41802 14.4706C8.79716 14.6706 9.48205 14.8824 9.9468 14.9647C10.5828 15.0706 10.9619 15.0706 11.659 14.9647C12.136 14.8824 12.7964 14.6941 13.1267 14.5412C13.4446 14.3882 13.8849 14.0706 14.1051 13.8353C14.313 13.6 14.5331 13.2353 14.5698 13.0235C14.6187 12.7726 14.5698 12.4941 14.4231 12.1882C14.2396 11.8353 14.0317 11.6588 13.518 11.4118C13.1511 11.2353 12.7353 10.9647 12.6008 10.8235L12.3562 10.5647C12.8576 10.1882 13.1511 10.1059 13.4569 10.1177C13.7382 10.1177 14.1295 10.2353 14.3986 10.3882C14.6432 10.5294 14.949 10.7765 15.0835 10.9412C15.218 11.1059 15.4259 11.4471 15.536 11.7059C15.6583 11.9765 15.7439 12.4941 15.7439 12.9412C15.7439 13.5294 15.6705 13.8706 15.4015 14.4588C15.1691 14.9412 14.8389 15.3882 14.472 15.7177C14.1418 16 13.6281 16.353 13.3101 16.4824C12.8454 16.6941 12.3928 16.753 11.1087 16.8118C10.2159 16.8471 9.43313 16.9412 9.35975 17C9.28637 17.0588 9.23745 17.2235 9.26191 17.3412C9.28637 17.4588 9.43313 17.6588 9.60436 17.7765C9.77558 17.8941 10.2648 18.0471 10.7051 18.1059C11.2432 18.1882 11.8058 18.1882 12.4173 18.1059C13.0044 18.0353 13.6403 17.8471 14.1907 17.6C14.6921 17.3647 15.3281 16.9294 15.7195 16.5647C16.1353 16.1882 16.5511 15.6353 16.7957 15.1765C17.0159 14.753 17.2482 14.1177 17.3094 13.7647C17.395 13.3294 17.395 12.9177 17.3094 12.4941C17.2482 12.1647 17.077 11.6706 16.9425 11.4118C16.808 11.153 16.49 10.7177 16.2454 10.4588C15.9885 10.1882 15.5115 9.83531 15.1691 9.6706C14.7166 9.44707 14.313 9.36472 13.5792 9.31766C12.8698 9.28236 12.454 9.32942 12.0871 9.45884C11.7936 9.56472 11.4267 9.82354 11.2554 10.0235C11.072 10.2588 10.9497 10.5765 10.9497 10.8235C10.9497 11.0706 11.0231 11.3059 11.1576 11.4353C11.2799 11.5412 11.708 11.7059 12.1115 11.8118C12.5151 11.9177 12.9065 12.0471 12.9677 12.1177C13.0492 12.1961 13.0288 12.3333 12.9065 12.5294C12.8087 12.6941 12.5641 12.9059 12.3562 13C12.1482 13.0941 11.7446 13.2 11.4389 13.2471C11.1331 13.2941 10.6195 13.2706 10.277 13.1882C9.9468 13.1177 9.43313 12.9059 9.15184 12.7059C8.85831 12.5177 8.51587 12.1412 8.38133 11.8824C8.21011 11.5647 8.13673 11.1765 8.13673 10.6706C8.13673 10.1412 8.21011 9.78825 8.43025 9.35295C8.58925 9.02354 8.94392 8.58825 9.20076 8.36472C9.45759 8.14119 9.91011 7.84707 10.2159 7.71766C10.7051 7.49413 10.9619 7.4706 12.4785 7.50589C14.0439 7.54119 14.2151 7.51766 14.5331 7.30589C14.7655 7.12942 14.8633 6.95295 14.8633 6.70589C14.8633 6.45884 14.741 6.24707 14.4598 5.98825C14.2396 5.78825 13.7993 5.56472 13.4569 5.4706C13.1144 5.38825 12.5641 5.29413 12.2339 5.25884C11.8914 5.23531 11.341 5.24707 11.0108 5.29413Z" fill="white"/>
</g>
<defs>
<clipPath id="clip0_344_73">
<rect width="24" height="24" fill="white"/>
</clipPath>
</defs>
</svg>
