<svg width="24" height="24" viewBox="0 0 24 24" fill="none" xmlns="http://www.w3.org/2000/svg">
<path fill-rule="evenodd" clip-rule="evenodd" d="M12 0C18.6281 0 24 5.37188 24 12C24 18.6281 18.6281 24 12 24C5.37188 24 0 18.6281 0 12C0 5.37188 5.37188 0 12 0Z" fill="#0C0C0C"/>
<g clip-path="url(#clip0_228_626)">
<path d="M14.2101 10.0365L14.9713 10.9532C15.059 11.0562 15.1355 11.1407 15.1677 11.1891C15.3957 11.4212 15.5232 11.7339 15.5232 12.0605C15.5022 12.4462 15.2562 12.7083 15.0305 12.9895L14.4981 13.6304L14.2198 13.9623C14.2101 13.9738 14.2033 13.9877 14.2011 14.003C14.1988 14.0184 14.2011 14.0338 14.2078 14.0476C14.2138 14.0614 14.2243 14.073 14.2378 14.0814C14.2513 14.0899 14.2663 14.0929 14.2813 14.0922H17.0591C17.4828 14.0922 18.0175 14.4579 17.9867 15.012C17.9867 15.2632 17.8862 15.5053 17.71 15.6836C17.533 15.8618 17.2938 15.9625 17.0448 15.9633H12.6952C12.4088 15.9633 11.6393 15.9948 11.4241 15.3224C11.3784 15.1818 11.3724 15.0312 11.4061 14.8867C11.4691 14.6739 11.5681 14.4741 11.6986 14.2958C11.9176 13.9639 12.1545 13.6311 12.3878 13.3092C12.6892 12.8873 12.9982 12.4793 13.3019 12.049C13.3124 12.0351 13.3184 12.0174 13.3184 11.9998C13.3184 11.9821 13.3124 11.9644 13.3019 11.9506L12.1965 10.622C12.1898 10.612 12.18 10.6051 12.1688 10.5997C12.1583 10.5943 12.147 10.5913 12.1343 10.5913C12.1215 10.5913 12.1103 10.5943 12.0998 10.5997C12.0893 10.6051 12.0795 10.6135 12.072 10.622C11.7758 11.0254 10.4799 12.8128 10.204 13.1747C9.928 13.5366 9.24707 13.5566 8.86985 13.1747L7.14127 11.4219C7.13077 11.4112 7.11652 11.4027 7.10077 11.4004C7.08578 11.3973 7.07003 11.3989 7.05503 11.405C7.04078 11.4112 7.02878 11.4212 7.01978 11.435C7.01078 11.4488 7.00628 11.4642 7.00628 11.4796V14.8483C7.01078 15.0873 6.94029 15.3216 6.80605 15.5191C6.67182 15.7158 6.47908 15.8657 6.25636 15.9464C6.11387 15.9963 5.96238 16.0117 5.81315 15.9902C5.66391 15.9687 5.52143 15.9118 5.39919 15.8234C5.2762 15.7358 5.17571 15.619 5.10672 15.4838C5.03772 15.3485 5.00098 15.1987 5.00098 15.0466V8.98911C5.01073 8.77088 5.08872 8.5611 5.22371 8.38975C5.35719 8.21839 5.54167 8.09467 5.75015 8.03627C5.92864 7.98863 6.11687 7.98863 6.29535 8.03781C6.47383 8.08699 6.63657 8.18227 6.76631 8.31598L9.4233 11.0024C9.43155 11.0108 9.4413 11.017 9.4518 11.0208C9.4623 11.0247 9.47355 11.0262 9.48555 11.0254C9.49679 11.0247 9.50729 11.0208 9.51704 11.0154C9.52679 11.0101 9.53579 11.0016 9.54179 10.9931L11.4294 8.35286C11.5171 8.24605 11.6266 8.15922 11.7503 8.09928C11.8741 8.03935 12.0091 8.00784 12.147 8.00631H17.0576C17.1918 8.00631 17.3245 8.03627 17.4468 8.09237C17.569 8.14846 17.6785 8.23068 17.7662 8.33288C17.8547 8.43508 17.9207 8.55572 17.9597 8.68482C17.9987 8.81545 18.0092 8.95146 17.9912 9.08593C17.9567 9.31953 17.839 9.53238 17.6605 9.68453C17.482 9.83745 17.2555 9.91967 17.0216 9.91659H14.2716C14.2573 9.91659 14.2438 9.9212 14.2326 9.92812C14.2213 9.93503 14.2116 9.94656 14.2048 9.95809C14.1988 9.97038 14.1951 9.98421 14.1958 9.99805C14.1958 10.0119 14.2011 10.0249 14.2093 10.0372H14.2086L14.2101 10.0365Z" fill="white"/>
</g>
<defs>
<clipPath id="clip0_228_626">
<rect width="13" height="8" fill="white" transform="translate(5 8)"/>
</clipPath>
</defs>
</svg>
