<svg width="24" height="24" viewBox="0 0 24 24" fill="none" xmlns="http://www.w3.org/2000/svg">
<g clip-path="url(#clip0_344_79)">
<path d="M12.005 24.01C18.6352 24.01 24.01 18.6352 24.01 12.005C24.01 5.37482 18.6352 0 12.005 0C5.37482 0 0 5.37482 0 12.005C0 18.6352 5.37482 24.01 12.005 24.01Z" fill="#262925"/>
<path d="M8.76772 8.02759L6.90456 10.2391L5.04139 8.02759L4.05176 11.9861H5.04139L5.53344 9.9958L6.39039 11.0186H7.42425L8.27567 9.9958L8.76772 11.9861L6.90456 14.1976L5.04139 11.9861L4.05176 15.9447H5.04139L5.53344 13.9543L6.39039 14.9771H7.42425L8.27567 13.9543L8.76772 15.9447H9.76289L8.76772 11.9861H9.76289L8.76772 8.02759Z" fill="white"/>
<path d="M18.0618 12.036C18.2553 12.036 18.4433 12.0139 18.6312 11.9752L19.1012 11.3117V11.9862H20.0079V10.2281C20.0079 9.3822 19.4661 8.94543 18.4101 8.94543C17.3541 8.94543 17.4536 9.03389 17.039 9.21081L16.8952 9.99588C17.343 9.78027 17.8462 9.66416 18.2995 9.66416C18.7529 9.66416 19.0238 9.80238 19.0846 10.1286L17.9788 10.2557C17.1385 10.3497 16.7681 10.6206 16.7681 11.1293C16.7681 11.7098 17.238 12.036 18.0618 12.036ZM18.0673 10.886L19.1012 10.7644V11.3062C18.8579 11.367 18.5815 11.4057 18.3382 11.4057C17.9346 11.4057 17.7411 11.3228 17.7411 11.1182C17.7411 10.9136 17.8406 10.9081 18.0673 10.8805V10.886Z" fill="white"/>
<path d="M16.895 12.34V15.9447H17.8017V14.369V12.34H16.895Z" fill="white"/>
<path d="M11.654 8.94543C10.6091 8.94543 9.93457 9.50383 9.93457 10.5045C9.93457 11.5052 10.598 12.0415 11.8199 12.0415C13.0417 12.0415 12.7266 11.9641 13.0804 11.8148L13.191 11.0463C12.804 11.2288 12.3727 11.3283 11.9083 11.3283C11.4439 11.3283 10.9961 11.1624 10.8855 10.7975H13.3402V10.6206C13.3402 9.56465 12.6989 8.95649 11.654 8.95649V8.94543ZM10.8744 10.1728C10.9629 9.81897 11.2172 9.64205 11.6429 9.64205C12.0686 9.64205 12.3395 9.82449 12.4225 10.1728H10.8689H10.8744Z" fill="white"/>
<path d="M11.6098 12.9039C11.1288 12.9039 10.6533 12.9924 10.2387 13.1693L10.0949 13.9544C10.5428 13.7388 11.0459 13.6227 11.4992 13.6227C11.9526 13.6227 12.2235 13.7609 12.2843 14.0871L11.1786 14.2142C10.3382 14.3082 9.96777 14.5791 9.96777 15.0878C9.96777 15.5964 10.4377 15.9945 11.2615 15.9945C12.0853 15.9945 11.643 15.9723 11.8309 15.9336L12.3009 15.2702V15.9447H13.2076V14.1866C13.2076 13.3407 12.6658 12.9039 11.6098 12.9039ZM11.5324 15.3697C11.1233 15.3697 10.9353 15.2868 10.9353 15.0822C10.9353 14.8777 11.0348 14.8721 11.2615 14.8445L12.2953 14.7229V15.2647C12.0521 15.3255 11.7757 15.3642 11.5324 15.3642V15.3697Z" fill="white"/>
<path d="M14.2304 10.9412C14.2304 11.6709 14.6505 12.0414 15.4854 12.0414C16.3202 12.0414 16.0935 11.9861 16.3534 11.8645L16.4695 11.0683C16.2152 11.2231 15.9553 11.3005 15.701 11.3005C15.3084 11.3005 15.1371 11.1402 15.1371 10.7864V9.73038H16.5137V8.99507H15.1371V8.37585L13.4121 9.28809V9.73038H14.2304V10.9412Z" fill="white"/>
<path d="M15.5899 14.1479L14.7882 14.0318C14.5892 13.9986 14.5063 13.9378 14.5063 13.8272C14.5063 13.6503 14.6998 13.5674 15.1034 13.5674C15.507 13.5674 15.9824 13.6614 16.4247 13.8659L16.3141 13.0919C15.9603 12.9647 15.5567 12.9039 15.131 12.9039C14.1469 12.9039 13.6051 13.2467 13.6051 13.8659C13.6051 14.4851 13.8981 14.6178 14.5284 14.7118L15.3411 14.8334C15.5457 14.8666 15.6286 14.944 15.6286 15.0712C15.6286 15.2481 15.4406 15.3366 15.0536 15.3366C14.6666 15.3366 13.9976 15.2149 13.5498 14.9993L13.6383 15.7733C14.0253 15.9171 14.5229 16 14.9928 16C16.0045 16 16.5353 15.6462 16.5353 15.0159C16.5353 14.3856 16.2423 14.2474 15.5844 14.1479H15.5899Z" fill="white"/>
<path d="M20.1238 12.9537H18.996L17.8018 14.3691L19.0734 15.9392H20.2178L18.8633 14.3248L20.1238 12.9537Z" fill="white"/>
</g>
<defs>
<clipPath id="clip0_344_79">
<rect width="24" height="24" fill="white"/>
</clipPath>
</defs>
</svg>
