<svg width="25" height="20" viewBox="0 0 25 20" fill="none" xmlns="http://www.w3.org/2000/svg">
<path d="M2.85038 20C5.92431 20 8.23442 17.3346 9.61299 15.2283C9.44534 15.6943 9.35221 16.1603 9.35221 16.6077C9.35221 17.8379 10.0601 18.7139 11.4574 18.7139C13.3762 18.7139 15.4256 17.0363 16.4875 15.2283C16.413 15.4893 16.3757 15.7316 16.3757 15.9553C16.3757 16.8127 16.8601 17.3532 17.8474 17.3532C20.9586 17.3532 24.0885 11.8546 24.0885 7.04567C24.0885 3.29916 22.1882 0 17.419 0C9.03546 0 0 10.2144 0 16.8127C0 19.4036 1.39724 20 2.85038 20ZM14.5313 6.6356C14.5313 5.70363 15.0529 5.05126 15.8168 5.05126C16.562 5.05126 17.0836 5.70363 17.0836 6.6356C17.0836 7.56757 16.562 8.23858 15.8168 8.23858C15.0529 8.23858 14.5313 7.56757 14.5313 6.6356ZM18.5181 6.6356C18.5181 5.70363 19.0398 5.05126 19.8036 5.05126C20.5487 5.05126 21.0704 5.70363 21.0704 6.6356C21.0704 7.56757 20.5487 8.23858 19.8036 8.23858C19.0398 8.23858 18.5181 7.56757 18.5181 6.6356Z" fill="#0C0C0C"/>
</svg>
