<svg width="24" height="24" viewBox="0 0 24 24" fill="none" xmlns="http://www.w3.org/2000/svg">
<path opacity="0.98" d="M8.95908 0.343566C8.25269 0.532528 7.04666 1.01352 6.28859 1.40862C5.2893 1.92397 4.53123 2.49086 3.53195 3.50438C2.77387 4.26022 1.89519 5.3081 1.6023 5.82345C1.29218 6.3388 0.844221 7.30079 0.620244 7.97074C0.396267 8.6407 0.155061 9.46525 0.103374 9.826L0 10.4616C1.27495 10.0665 1.91242 9.94625 2.23977 9.94625C2.56712 9.94625 3.11845 10.015 3.4458 10.118C3.77315 10.2039 4.3934 10.5131 4.82412 10.8052C5.25485 11.0972 5.87509 11.5267 6.20244 11.7671C6.71931 12.1451 6.94329 12.1966 7.75305 12.1451C8.6145 12.0935 8.85571 11.9733 10.2513 10.9426C11.1127 10.307 12.0775 9.70575 12.4049 9.61986C12.7322 9.51679 13.5075 9.4309 14.1278 9.4309C14.9375 9.4309 15.4889 9.55115 16.1091 9.84318C16.5743 10.0493 17.7631 10.9082 18.7452 11.7156L20.5025 13.2101L19.038 14.8764C17.5908 13.6568 16.8844 13.0383 16.5571 12.7291C16.2125 12.4027 15.6267 12.0076 15.2477 11.8187C14.8686 11.6469 14.3518 11.4923 14.0761 11.4923C13.8177 11.4923 13.3525 11.5954 13.0424 11.7156C12.7495 11.8359 11.9914 12.334 11.3711 12.815C10.7509 13.296 9.97559 13.8285 9.64824 14.0003C9.20029 14.2408 8.68342 14.3267 7.66691 14.3267C6.54702 14.3267 6.13352 14.2408 5.51328 13.9144C5.08256 13.6911 4.44508 13.2445 4.08327 12.9353C3.73869 12.6089 3.23905 12.2997 2.96339 12.2481C2.70495 12.1794 2.18808 12.1623 1.80905 12.2138C1.43001 12.2481 0.86145 12.4543 0.551328 12.6604C0.206748 12.9009 0 13.1758 0 13.4334C0 13.6396 0.120603 14.2752 0.258435 14.8421C0.396267 15.409 0.86145 16.5599 1.27495 17.4188C1.70567 18.2777 2.23977 19.1367 2.48098 19.36L2.92893 19.7379C5.85786 17.2814 6.40919 16.9378 7.20172 16.7145C7.78751 16.5427 8.4939 16.474 8.95908 16.5255C9.38981 16.5599 10.079 16.766 10.5097 16.9378C10.9404 17.1268 11.509 17.5047 11.8019 17.7796C12.0775 18.0544 12.5083 18.4152 12.7495 18.5698C13.0251 18.7587 13.5075 18.879 14.0416 18.879C14.7653 18.879 15.0754 18.7587 15.9368 18.1918C16.5054 17.7967 17.2462 17.4016 17.5736 17.2986C17.9009 17.1955 18.7279 17.144 19.3826 17.1783C20.2613 17.2299 20.8299 17.3673 21.4846 17.728L22.3977 18.1918C23.173 16.5255 23.5348 15.5464 23.7071 14.928C23.8966 14.2065 24 13.1586 24 12.0076C24 10.8395 23.8966 9.80882 23.6899 9.08733C23.5348 8.46891 23.2075 7.54128 22.9663 7.02593C22.7423 6.51058 22.3977 5.87499 22.2082 5.61731C21.9497 5.23939 21.743 5.13632 21.2778 5.13632C20.9505 5.13632 20.4164 5.25657 20.1235 5.42835C19.8134 5.58295 19.2793 5.92652 18.9519 6.20137C18.6245 6.45905 17.9698 6.80262 17.4874 6.94004C17.0223 7.07747 16.3159 7.19772 15.9368 7.19772C15.5578 7.19772 14.9031 7.07747 14.4724 6.94004C14.0416 6.80262 13.2663 6.3388 12.7495 5.90934C12.2154 5.46271 11.5434 5.08478 11.1989 5.03325C10.8715 4.96453 10.3202 5.01607 9.99282 5.11914C9.64824 5.22221 8.71787 5.92652 7.78751 6.80262L6.16798 8.31431L4.6346 6.76826C7.25341 4.32894 8.35607 3.45284 8.78679 3.26388C9.33812 3.00621 9.90668 2.90314 10.7681 2.90314C11.5607 2.90314 12.2154 3.02338 12.6633 3.21235C13.0424 3.38413 13.6281 3.76205 13.9555 4.05408C14.2828 4.32894 14.7308 4.65532 14.9548 4.77557C15.1615 4.87864 15.6439 4.96453 16.023 4.96453C16.402 4.96453 16.8844 4.87864 17.1084 4.75839C17.3151 4.65532 17.7631 4.34612 18.0905 4.08844C18.4178 3.81359 19.0036 3.4872 19.3826 3.31542L20.0718 3.04056C19.1414 2.26754 18.1766 1.68348 17.3151 1.2712C16.4537 0.841738 15.2132 0.377923 14.5585 0.240496C13.9038 0.10307 12.6633 0 11.8019 0C10.8198 0 9.76884 0.120248 8.95908 0.343566ZM7.06389 19.2054C6.63317 19.4802 5.85786 20.0986 5.34099 20.5625L4.3934 21.4042C6.13352 22.5208 7.06389 23.0018 7.58076 23.1907C8.09763 23.3969 9.07968 23.6717 9.73439 23.8092C10.5614 23.9809 11.4573 24.0325 12.5772 23.9809C13.6454 23.9294 14.6963 23.7404 15.5922 23.4484C16.3503 23.2079 17.453 22.7269 18.056 22.3662C18.6418 22.0054 19.5205 21.387 19.9856 20.9919C20.4681 20.5796 20.8471 20.133 20.8471 19.9956C20.8471 19.8581 20.5197 19.6176 20.1235 19.463C19.6238 19.2741 19.1586 19.2225 18.6935 19.3084C18.3144 19.3771 17.5391 19.7379 16.9706 20.0986C16.402 20.4766 15.6267 20.8717 15.2477 20.9747C14.8686 21.0606 14.1278 21.1122 13.6109 21.0606C13.094 21.0263 12.3877 20.8545 12.0603 20.6827C11.733 20.5109 11.1299 20.0815 10.7337 19.7207C10.3202 19.3428 9.8033 18.982 9.5621 18.879C9.32089 18.7931 8.83848 18.7072 8.47667 18.7072C8.06317 18.7072 7.56353 18.879 7.06389 19.2054Z" fill="#0C0C0C"/>
</svg>
