<svg width="21" height="20" viewBox="0 0 21 20" fill="none" xmlns="http://www.w3.org/2000/svg">
<path fill-rule="evenodd" clip-rule="evenodd" d="M14.4333 6.43327C14.5505 6.31623 14.7094 6.25049 14.875 6.25049C15.0406 6.25049 15.1995 6.31623 15.3167 6.43327L18.4417 9.55827C18.5587 9.67546 18.6245 9.83431 18.6245 9.99994C18.6245 10.1656 18.5587 10.3244 18.4417 10.4416L15.3167 13.5666C15.2594 13.628 15.1904 13.6773 15.1138 13.7114C15.0371 13.7456 14.9544 13.7639 14.8704 13.7654C14.7865 13.7669 14.7032 13.7515 14.6253 13.72C14.5475 13.6886 14.4768 13.6418 14.4175 13.5825C14.3581 13.5231 14.3113 13.4524 14.2799 13.3746C14.2485 13.2968 14.233 13.2134 14.2345 13.1295C14.236 13.0456 14.2544 12.9628 14.2885 12.8862C14.3227 12.8095 14.3719 12.7405 14.4333 12.6833L16.4917 10.6249H3C2.83424 10.6249 2.67527 10.5591 2.55806 10.4419C2.44085 10.3247 2.375 10.1657 2.375 9.99994C2.375 9.83418 2.44085 9.67521 2.55806 9.558C2.67527 9.44079 2.83424 9.37494 3 9.37494H16.4917L14.4333 7.3166C14.3163 7.19942 14.2506 7.04056 14.2506 6.87494C14.2506 6.70931 14.3163 6.55046 14.4333 6.43327Z" fill="white"/>
</svg>
