<svg width="21" height="20" viewBox="0 0 21 20" fill="none" xmlns="http://www.w3.org/2000/svg">
<path fill-rule="evenodd" clip-rule="evenodd" d="M6.56667 6.43327C6.44948 6.31623 6.29062 6.25049 6.125 6.25049C5.95937 6.25049 5.80052 6.31623 5.68333 6.43327L2.55833 9.55827C2.44129 9.67546 2.37555 9.83431 2.37555 9.99994C2.37555 10.1656 2.44129 10.3244 2.55833 10.4416L5.68333 13.5666C5.74055 13.628 5.80955 13.6773 5.88622 13.7114C5.96288 13.7456 6.04565 13.7639 6.12956 13.7654C6.21348 13.7669 6.29684 13.7515 6.37466 13.72C6.45249 13.6886 6.52318 13.6418 6.58253 13.5825C6.64188 13.5231 6.68867 13.4524 6.7201 13.3746C6.75154 13.2968 6.76697 13.2134 6.76549 13.1295C6.76401 13.0456 6.74564 12.9628 6.71148 12.8862C6.67732 12.8095 6.62807 12.7405 6.56667 12.6833L4.50833 10.6249H18C18.1658 10.6249 18.3247 10.5591 18.4419 10.4419C18.5592 10.3247 18.625 10.1657 18.625 9.99994C18.625 9.83418 18.5592 9.67521 18.4419 9.558C18.3247 9.44079 18.1658 9.37494 18 9.37494H4.50833L6.56667 7.3166C6.68371 7.19942 6.74945 7.04056 6.74945 6.87494C6.74945 6.70931 6.68371 6.55046 6.56667 6.43327Z" fill="#262925"/>
</svg>
