<svg width="12" height="14" viewBox="0 0 12 14" fill="none" xmlns="http://www.w3.org/2000/svg">
<path d="M11.168 6.25C11.168 7.0397 10.5101 7.5 9.91797 7.5L8.16797 7.5V12.25C8.16797 12.9386 7.60661 13.5 6.91797 13.5L5.41797 13.5C4.72933 13.5 4.16797 12.9386 4.16797 12.25L4.16797 7.5L2.41797 7.5C1.82587 7.5 1.16797 7.0397 1.16797 6.25C1.16797 5.6746 1.5709 5.3224 1.68848 5.18066L5.0332 1.14941L5.03418 1.14941C5.27256 0.857038 5.5862 0.5 6.16797 0.5C6.75065 0.5 7.06438 0.857921 7.30273 1.14941L10.6475 5.18066C10.765 5.3224 11.168 5.6746 11.168 6.25Z" stroke="#262925"/>
</svg>
