<svg width="12" height="14" viewBox="0 0 12 14" fill="none" xmlns="http://www.w3.org/2000/svg">
<path d="M11.168 7.75C11.168 6.9603 10.5101 6.5 9.91797 6.5L8.16797 6.5V1.75C8.16797 1.06136 7.60661 0.5 6.91797 0.5L5.41797 0.5C4.72933 0.5 4.16797 1.06136 4.16797 1.75L4.16797 6.5L2.41797 6.5C1.82587 6.5 1.16797 6.9603 1.16797 7.75C1.16797 8.3254 1.5709 8.6776 1.68848 8.81934L5.0332 12.8506L5.03418 12.8506C5.27256 13.143 5.5862 13.5 6.16797 13.5C6.75065 13.5 7.06438 13.1421 7.30273 12.8506L10.6475 8.81934C10.765 8.6776 11.168 8.3254 11.168 7.75Z" stroke="#262925"/>
</svg>
