<svg width="33" height="32" viewBox="0 0 33 32" fill="none" xmlns="http://www.w3.org/2000/svg">
<path d="M16.6572 0.5C25.1546 0.5 32.0437 7.38839 32.0439 15.8857C32.0439 24.3833 25.1548 31.2725 16.6572 31.2725C8.15988 31.2722 1.27148 24.3831 1.27148 15.8857C1.27171 7.38853 8.16002 0.500225 16.6572 0.5Z" fill="white" stroke="#DFE4EA"/>
<path d="M13.6276 11.3333C13.6274 11.6869 13.4868 12.026 13.2366 12.2759C12.9864 12.5258 12.6472 12.6661 12.2936 12.6659C11.94 12.6658 11.6009 12.5251 11.351 12.2749C11.1011 12.0248 10.9608 11.6856 10.9609 11.3319C10.9611 10.9783 11.1018 10.6392 11.3519 10.3893C11.6021 10.1394 11.9413 9.99909 12.2949 9.99927C12.6486 9.99944 12.9876 10.1401 13.2376 10.3903C13.4875 10.6404 13.6278 10.9796 13.6276 11.3333ZM13.6676 13.6533H11.0009V21.9999H13.6676V13.6533ZM17.8809 13.6533H15.2276V21.9999H17.8543V17.6199C17.8543 15.1799 21.0343 14.9533 21.0343 17.6199V21.9999H23.6676V16.7133C23.6676 12.5999 18.9609 12.7533 17.8543 14.7733L17.8809 13.6533Z" fill="#111928"/>
</svg>
