<svg width="16" height="16" viewBox="0 0 16 16" fill="none" xmlns="http://www.w3.org/2000/svg">
<path fill-rule="evenodd" clip-rule="evenodd" d="M1.5 8C1.5 4.41 4.41 1.5 8 1.5C11.59 1.5 14.5 4.41 14.5 8C14.5 11.59 11.59 14.5 8 14.5C4.41 14.5 1.5 11.59 1.5 8ZM5.5 6.37467C5.5 5.892 5.892 5.5 6.37533 5.5H9.62467C10.108 5.5 10.5 5.892 10.5 6.37533V9.62467C10.5 10.108 10.108 10.5 9.62467 10.5H6.376C6.26102 10.5001 6.14716 10.4775 6.04092 10.4335C5.93468 10.3896 5.83815 10.3251 5.75685 10.2438C5.67555 10.1625 5.61108 10.066 5.56712 9.95975C5.52316 9.85351 5.50058 9.73964 5.50067 9.62467V6.376L5.5 6.37467Z" fill="#EB4226"/>
</svg>
