<svg width="20" height="20" viewBox="0 0 20 20" fill="none" xmlns="http://www.w3.org/2000/svg">
<path fill-rule="evenodd" clip-rule="evenodd" d="M7.3757 3.01372C7.71043 2.62757 8.12434 2.31797 8.58932 2.10594C9.0543 1.89392 9.55946 1.78443 10.0705 1.78491C11.147 1.78491 12.1116 2.26089 12.7653 3.01372C13.2751 2.97731 13.7868 3.05107 14.2657 3.22997C14.7445 3.40887 15.1792 3.68874 15.5402 4.05054C15.9019 4.41154 16.1816 4.84611 16.3605 5.32477C16.5394 5.80342 16.6133 6.31496 16.577 6.82467C16.963 7.15948 17.2725 7.57342 17.4844 8.0384C17.6963 8.50337 17.8056 9.00849 17.8051 9.51947C17.8055 10.0305 17.696 10.5357 17.484 11.0006C17.272 11.4656 16.9624 11.8795 16.5762 12.2143C16.6125 12.724 16.5386 13.2355 16.3597 13.7142C16.1809 14.1928 15.9011 14.6274 15.5394 14.9884C15.1784 15.3501 14.7439 15.6298 14.2652 15.8087C13.7865 15.9876 13.275 16.0615 12.7653 16.0252C12.4306 16.4114 12.0166 16.721 11.5517 16.933C11.0867 17.145 10.5815 17.2545 10.0705 17.254C9.55946 17.2545 9.0543 17.145 8.58932 16.933C8.12434 16.721 7.71043 16.4114 7.3757 16.0252C6.86591 16.0617 6.35424 15.9881 5.87544 15.8093C5.39663 15.6306 4.9619 15.3509 4.60078 14.9892C4.23901 14.6281 3.95918 14.1934 3.78028 13.7146C3.60138 13.2358 3.5276 12.7241 3.56395 12.2143C3.17794 11.8795 2.86849 11.4655 2.65661 11.0005C2.44472 10.5356 2.33536 10.0304 2.33594 9.51947C2.33594 8.44298 2.81191 7.47834 3.56474 6.82467C3.52845 6.31496 3.60227 5.8034 3.78117 5.32474C3.96007 4.84607 4.23987 4.41151 4.60157 4.05054C4.96253 3.68884 5.3971 3.40904 5.87576 3.23014C6.35443 3.05124 6.86598 2.97743 7.3757 3.01372ZM12.9343 8.08044C12.9819 8.01702 13.0163 7.94473 13.0356 7.8678C13.0548 7.79088 13.0585 7.71089 13.0464 7.63252C13.0343 7.55415 13.0066 7.47899 12.9651 7.41146C12.9235 7.34393 12.8689 7.28539 12.8044 7.23928C12.7399 7.19317 12.6668 7.16042 12.5894 7.14296C12.5121 7.1255 12.432 7.12367 12.354 7.13759C12.2759 7.15151 12.2014 7.1809 12.1349 7.22402C12.0683 7.26714 12.0111 7.32313 11.9665 7.3887L9.39937 10.9823L8.11107 9.69399C7.99829 9.5889 7.84911 9.53168 7.69498 9.5344C7.54084 9.53712 7.39378 9.59956 7.28477 9.70857C7.17576 9.81758 7.11332 9.96464 7.1106 10.1188C7.10788 10.2729 7.16509 10.4221 7.27019 10.5349L9.05509 12.3198C9.11616 12.3808 9.18979 12.4278 9.27085 12.4575C9.35192 12.4872 9.43848 12.499 9.52452 12.4919C9.61057 12.4848 9.69405 12.459 9.76915 12.4164C9.84425 12.3738 9.90918 12.3154 9.95943 12.2452L12.9343 8.08044Z" fill="#262925"/>
</svg>
