<svg width="17" height="16" viewBox="0 0 17 16" fill="none" xmlns="http://www.w3.org/2000/svg">
<path fill-rule="evenodd" clip-rule="evenodd" d="M6.23534 2.53267C6.51664 2.20815 6.86448 1.94797 7.25525 1.76979C7.64601 1.5916 8.07053 1.49959 8.5 1.5C9.40467 1.5 10.2153 1.9 10.7647 2.53267C11.1931 2.50207 11.6232 2.56406 12.0255 2.7144C12.4279 2.86475 12.7932 3.09994 13.0967 3.404C13.4006 3.70738 13.6357 4.07258 13.7861 4.47484C13.9364 4.87709 13.9985 5.30698 13.968 5.73533C14.2924 6.0167 14.5525 6.36457 14.7305 6.75533C14.9086 7.14609 15.0005 7.57058 15 8C15.0004 8.42947 14.9084 8.854 14.7302 9.24476C14.552 9.63552 14.2919 9.98336 13.9673 10.2647C13.9978 10.693 13.9357 11.1229 13.7854 11.5252C13.6351 11.9274 13.3999 12.2926 13.096 12.596C12.7926 12.8999 12.4274 13.1351 12.0252 13.2854C11.6229 13.4357 11.193 13.4978 10.7647 13.4673C10.4834 13.7919 10.1355 14.052 9.74476 14.2302C9.354 14.4084 8.92947 14.5004 8.5 14.5C8.07053 14.5004 7.64601 14.4084 7.25525 14.2302C6.86448 14.052 6.51664 13.7919 6.23534 13.4673C5.80692 13.498 5.37692 13.4361 4.97454 13.2859C4.57216 13.1357 4.20682 12.9006 3.90334 12.5967C3.59931 12.2932 3.36415 11.9279 3.2138 11.5255C3.06346 11.1231 3.00145 10.6931 3.032 10.2647C2.70761 9.9833 2.44755 9.63543 2.26949 9.24467C2.09142 8.85391 1.99951 8.42942 2 8C2 7.09534 2.4 6.28467 3.03267 5.73533C3.00217 5.30698 3.0642 4.87708 3.21455 4.47482C3.36489 4.07255 3.60003 3.70735 3.904 3.404C4.20735 3.10003 4.57255 2.86489 4.97482 2.71455C5.37708 2.5642 5.80698 2.50217 6.23534 2.53267ZM10.9067 6.79067C10.9467 6.73737 10.9756 6.67661 10.9918 6.61197C11.008 6.54732 11.0111 6.4801 11.0009 6.41424C10.9907 6.34838 10.9675 6.28522 10.9326 6.22847C10.8976 6.17171 10.8517 6.12252 10.7975 6.08377C10.7433 6.04502 10.6819 6.0175 10.6169 6.00282C10.5519 5.98814 10.4846 5.98661 10.419 5.99831C10.3534 6.01001 10.2908 6.0347 10.2349 6.07094C10.1789 6.10718 10.1308 6.15423 10.0933 6.20933L7.936 9.22933L6.85334 8.14667C6.75855 8.05835 6.63319 8.01027 6.50365 8.01255C6.37412 8.01484 6.25053 8.06731 6.15892 8.15892C6.06731 8.25053 6.01484 8.37412 6.01255 8.50365C6.01027 8.63319 6.05835 8.75855 6.14667 8.85333L7.64667 10.3533C7.698 10.4046 7.75987 10.4441 7.82799 10.4691C7.89612 10.4941 7.96886 10.5039 8.04118 10.498C8.11349 10.492 8.18364 10.4704 8.24675 10.4346C8.30987 10.3988 8.36444 10.3497 8.40667 10.2907L10.9067 6.79067Z" fill="#27AE60"/>
</svg>
