<svg width="20" height="20" viewBox="0 0 20 20" fill="none" xmlns="http://www.w3.org/2000/svg">
<path fill-rule="evenodd" clip-rule="evenodd" d="M7.37374 3.01372C7.70848 2.62757 8.12239 2.31797 8.58737 2.10594C9.05234 1.89392 9.5575 1.78443 10.0685 1.78491C11.145 1.78491 12.1097 2.26089 12.7633 3.01372C13.2732 2.97731 13.7849 3.05107 14.2637 3.22997C14.7425 3.40887 15.1772 3.68874 15.5383 4.05054C15.8999 4.41154 16.1797 4.84611 16.3586 5.32477C16.5375 5.80342 16.6113 6.31496 16.5751 6.82467C16.9611 7.15948 17.2705 7.57342 17.4824 8.0384C17.6943 8.50337 17.8037 9.00849 17.8031 9.51947C17.8036 10.0305 17.6941 10.5357 17.4821 11.0006C17.27 11.4656 16.9604 11.8795 16.5743 12.2143C16.6105 12.724 16.5367 13.2355 16.3578 13.7142C16.1789 14.1928 15.8991 14.6274 15.5375 14.9884C15.1765 15.3501 14.7419 15.6298 14.2632 15.8087C13.7846 15.9876 13.273 16.0615 12.7633 16.0252C12.4286 16.4114 12.0147 16.721 11.5497 16.933C11.0847 17.145 10.5796 17.2545 10.0685 17.254C9.5575 17.2545 9.05234 17.145 8.58737 16.933C8.12239 16.721 7.70848 16.4114 7.37374 16.0252C6.86396 16.0617 6.35229 15.9881 5.87348 15.8093C5.39468 15.6306 4.95995 15.3509 4.59882 14.9892C4.23706 14.6281 3.95722 14.1934 3.77832 13.7146C3.59942 13.2358 3.52564 12.7241 3.562 12.2143C3.17599 11.8795 2.86654 11.4655 2.65465 11.0005C2.44277 10.5356 2.3334 10.0304 2.33399 9.51947C2.33399 8.44298 2.80996 7.47834 3.56279 6.82467C3.5265 6.31496 3.60031 5.8034 3.77921 5.32474C3.95811 4.84607 4.23791 4.41151 4.59962 4.05054C4.96058 3.68884 5.39515 3.40904 5.87381 3.23014C6.35248 3.05124 6.86403 2.97743 7.37374 3.01372ZM12.9323 8.08044C12.9799 8.01702 13.0143 7.94473 13.0336 7.8678C13.0529 7.79088 13.0565 7.71089 13.0444 7.63252C13.0323 7.55415 13.0047 7.47899 12.9631 7.41146C12.9216 7.34393 12.8669 7.28539 12.8024 7.23928C12.7379 7.19317 12.6648 7.16042 12.5875 7.14296C12.5101 7.1255 12.4301 7.12367 12.352 7.13759C12.2739 7.15151 12.1994 7.1809 12.1329 7.22402C12.0664 7.26714 12.0091 7.32313 11.9645 7.3887L9.39742 10.9823L8.10912 9.69399C7.99634 9.5889 7.84716 9.53168 7.69302 9.5344C7.53889 9.53712 7.39182 9.59956 7.28282 9.70857C7.17381 9.81758 7.11137 9.96464 7.10865 10.1188C7.10593 10.2729 7.16314 10.4221 7.26824 10.5349L9.05313 12.3198C9.11421 12.3808 9.18783 12.4278 9.2689 12.4575C9.34996 12.4872 9.43652 12.499 9.52257 12.4919C9.60862 12.4848 9.69209 12.459 9.76719 12.4164C9.8423 12.3738 9.90723 12.3154 9.95748 12.2452L12.9323 8.08044Z" fill="#262925"/>
</svg>
