<svg width="16" height="16" viewBox="0 0 16 16" fill="none" xmlns="http://www.w3.org/2000/svg">
<g clip-path="url(#clip0_312_2416)">
<path d="M9.539 6.39301V6.39551C9.4895 6.36401 9.388 6.34851 9.2605 6.34851V9.55951C9.44 9.55951 9.552 9.51801 9.594 9.44751C9.6355 9.38001 9.6565 9.17951 9.6565 8.85901V6.94751C9.6565 6.72851 9.654 6.58801 9.6355 6.52801C9.62 6.46301 9.591 6.41851 9.5415 6.39251L9.539 6.39301ZM14.9425 1.17188e-05H1.0805C0.801821 0.0161525 0.538526 0.133106 0.339718 0.329062C0.140911 0.525017 0.0201655 0.786595 0 1.06501L0 14.919C0.039 15.5025 0.474 15.9475 1.0365 15.997C1.04683 15.999 1.05733 15.9998 1.068 15.9995H14.964C15.2472 15.9711 15.5098 15.8388 15.7012 15.6282C15.8926 15.4176 15.9992 15.1436 16.0005 14.859V1.14001C15.9991 0.852023 15.8896 0.575059 15.6938 0.363878C15.498 0.152697 15.2301 0.0226727 14.943 -0.000488281L14.9425 1.17188e-05ZM3.1955 10.4165H1.9245V5.50751H3.1955V10.4165ZM7.5545 10.4165H6.4475V7.10151L5.9995 10.414H5.208L4.742 7.17451L4.737 10.414H3.6275V5.50751H5.2705C5.328 5.85401 5.3775 6.20551 5.424 6.55701L5.6035 7.80201L5.9005 5.50751H7.554L7.5545 10.4165ZM10.8725 8.96351C10.8725 9.39851 10.844 9.69251 10.802 9.84351C10.7701 9.97964 10.6942 10.1014 10.586 10.19C10.4769 10.2811 10.3459 10.3422 10.206 10.367C10.0575 10.3955 9.826 10.4165 9.5265 10.4165L9.524 10.414H7.9875V5.50751H8.938C9.5475 5.50751 9.904 5.53901 10.1175 5.59101C10.3335 5.65101 10.5005 5.74201 10.615 5.87251C10.7245 5.99251 10.7975 6.14051 10.8235 6.30201C10.8568 6.45868 10.8733 6.77035 10.873 7.23701L10.8725 8.96351ZM14.1695 9.27851C14.1695 9.57801 14.138 9.78901 14.1095 9.94001C14.068 10.0885 13.9795 10.208 13.8385 10.3175C13.6875 10.4295 13.518 10.479 13.3175 10.479C13.1715 10.479 12.984 10.4375 12.8645 10.388C12.7314 10.3171 12.6143 10.2196 12.5205 10.1015L12.445 10.4165H11.299V5.50751L11.286 5.50501H12.4865V7.10401C12.5852 6.98701 12.698 6.89851 12.825 6.83851C12.9722 6.78214 13.1284 6.753 13.286 6.75251C13.437 6.75251 13.5855 6.77601 13.726 6.83051C13.8405 6.87751 13.9395 6.95301 14.0175 7.04951C14.0775 7.13301 14.1165 7.22901 14.1375 7.33101C14.1555 7.42201 14.166 7.61751 14.166 7.90901V9.27901L14.1695 9.27851ZM12.719 7.46901C12.641 7.46901 12.5915 7.49751 12.5705 7.54951C12.5495 7.60401 12.5315 7.74201 12.5315 7.96601V9.26301C12.5315 9.47901 12.5495 9.62001 12.5705 9.67951C12.5838 9.70776 12.6054 9.73132 12.6323 9.74711C12.6593 9.76291 12.6903 9.77019 12.7215 9.76801C12.7995 9.76801 12.901 9.73651 12.922 9.67401C12.9407 9.60934 12.9502 9.46001 12.9505 9.22601L12.9715 9.22351V7.96301C12.9715 7.76251 12.961 7.62451 12.9325 7.56201C12.901 7.49451 12.8025 7.46801 12.7215 7.46801L12.719 7.46901Z" fill="black"/>
</g>
<defs>
<clipPath id="clip0_312_2416">
<rect width="16" height="16" fill="white"/>
</clipPath>
</defs>
</svg>
