<svg width="20" height="20" viewBox="0 0 20 20" fill="none" xmlns="http://www.w3.org/2000/svg">
<path d="M2.50564 7.31012C2.45879 6.37974 2.70491 5.46073 3.20296 4.69018L3.3327 4.50071L3.34342 4.49033L3.43349 4.38464L3.52785 4.27673L3.53857 4.2656C3.71871 4.08093 3.91814 3.91851 4.13331 3.77982L4.19407 3.74134L4.25483 3.70565L4.39779 3.62333C4.4557 3.59589 4.5186 3.56325 4.5765 3.53581C4.61868 3.51949 4.66085 3.49799 4.70303 3.48167C4.78237 3.44829 4.86672 3.41566 4.95107 3.38822C4.97967 3.37413 5.00969 3.363 5.04043 3.35559L5.07456 3.34187L5.11191 3.32815C5.49649 3.21319 5.89179 3.13383 6.29138 3.09749L6.25 3.10234V2.27347C6.25 1.94113 6.51808 1.67242 6.84963 1.67242C7.18118 1.67242 7.45 1.94113 7.45 2.27347V4.89326C7.45 5.2256 7.18118 5.49506 6.84963 5.49506C6.51808 5.49506 6.25 5.2256 6.25 4.89326L6.25004 4.28758C5.85641 4.32699 5.46991 4.42493 5.10333 4.58007C4.15736 5.00563 3.70621 5.81607 3.66346 7.10041L3.66009 7.30715V7.62978H16.3405V7.299C16.3648 6.70418 16.2454 6.11234 15.9923 5.5776C15.7493 5.12 15.3604 4.76474 14.8908 4.57191C14.5917 4.44316 14.2784 4.35333 13.9583 4.30432L13.75 4.279L13.75 4.89024C13.75 5.22114 13.4815 5.48916 13.15 5.48916C12.8185 5.48916 12.55 5.22114 12.55 4.89024L12.55 4.234L7.45584 4.23445V3.04261L12.55 3.04234L12.55 2.26995C12.547 1.93904 12.814 1.66878 13.1455 1.66652C13.477 1.66429 13.7478 1.93006 13.75 2.26096L13.7505 3.09773C14.0416 3.12645 14.3304 3.17725 14.6146 3.24981L14.8972 3.32963C14.9201 3.33408 14.9372 3.34001 14.9687 3.35114C15.0001 3.36226 15.0266 3.37339 15.058 3.38377C15.1417 3.41121 15.2196 3.44384 15.3004 3.47722C15.3468 3.49354 15.3897 3.51504 15.4262 3.53136C15.4891 3.5588 15.5534 3.59144 15.6049 3.61888C15.6578 3.64632 15.7085 3.67673 15.7529 3.7012C15.7972 3.72568 15.8315 3.75312 15.8687 3.77537C16.0306 3.87994 16.1844 3.99786 16.3282 4.12757L16.4684 4.26115L16.4748 4.27228L16.5729 4.3763L16.665 4.48588L16.67 4.49626C17.2091 5.2418 17.4991 6.14722 17.5 7.07486L17.4942 7.30715V7.62978H17.5V14.0916C17.5 16.9095 15.9263 18.3332 12.8076 18.3332H7.18526C4.07368 18.3332 2.5 16.9095 2.5 14.0916V7.62978H2.50564V7.31012ZM13.4299 13.5384C13.0436 13.5384 12.7361 13.8556 12.7361 14.2466C12.7432 14.6375 13.0508 14.9547 13.4299 14.9547C13.809 14.9547 14.1166 14.6375 14.1166 14.2466C14.1166 13.8556 13.809 13.5384 13.4299 13.5384ZM10.0036 13.531C9.61731 13.5384 9.30973 13.8556 9.30973 14.2466C9.30973 14.6375 9.62446 14.9547 10.0036 14.9547C10.3827 14.9547 10.6903 14.6375 10.6903 14.2392C10.6831 13.8556 10.3827 13.5384 10.0036 13.531ZM6.5701 13.531C6.18383 13.531 5.87625 13.8556 5.8834 14.2466C5.8834 14.6375 6.19099 14.9547 6.5701 14.9547C6.94921 14.9547 7.2568 14.6301 7.2568 14.2392C7.2568 13.8482 6.94921 13.531 6.5701 13.531ZM13.4299 10.514C13.0436 10.514 12.7432 10.8312 12.7432 11.2222C12.7432 11.6131 13.0508 11.9303 13.4299 11.9303C13.809 11.9303 14.1166 11.6131 14.1166 11.2222C14.1166 10.8312 13.809 10.514 13.4299 10.514ZM10.0036 10.5066C9.61731 10.514 9.30973 10.8312 9.30973 11.2222C9.30973 11.6131 9.62446 11.9303 10.0036 11.9303C10.3827 11.9303 10.6903 11.6131 10.6903 11.2148C10.6903 10.8312 10.3827 10.514 10.0036 10.5066ZM6.57725 10.5066C6.19099 10.5066 5.8834 10.8312 5.8834 11.2222C5.8834 11.6131 6.19099 11.9303 6.5701 11.9303C6.95637 11.9303 7.26395 11.6057 7.2568 11.2148C7.2568 10.8238 6.94921 10.5066 6.57725 10.5066Z" fill="#939393"/>
</svg>
