<svg width="14" height="12" viewBox="0 0 14 12" fill="none" xmlns="http://www.w3.org/2000/svg">
<path d="M11.8464 1.55341C10.9598 1.14008 9.99975 0.840081 8.99975 0.666748C8.98217 0.666999 8.96539 0.674187 8.95309 0.686748C8.83309 0.906748 8.69309 1.19341 8.59975 1.41341C7.53908 1.25352 6.46043 1.25352 5.39975 1.41341C5.30642 1.18675 5.16642 0.906748 5.03975 0.686748C5.03309 0.673415 5.01309 0.666748 4.99309 0.666748C3.99309 0.840081 3.03975 1.14008 2.14642 1.55341C2.13975 1.55341 2.13309 1.56008 2.12642 1.56675C0.313086 4.28008 -0.186914 6.92008 0.0597526 9.53341C0.0597526 9.54675 0.0664193 9.56008 0.0797526 9.56675C1.27975 10.4467 2.43309 10.9801 3.57309 11.3334C3.59309 11.3401 3.61309 11.3334 3.61975 11.3201C3.88642 10.9534 4.12642 10.5667 4.33309 10.1601C4.34642 10.1334 4.33309 10.1067 4.30642 10.1001C3.92642 9.95341 3.56642 9.78008 3.21309 9.58008C3.18642 9.56675 3.18642 9.52675 3.20642 9.50675C3.27975 9.45341 3.35309 9.39342 3.42642 9.34008C3.43975 9.32675 3.45975 9.32675 3.47309 9.33342C5.76642 10.3801 8.23975 10.3801 10.5064 9.33342C10.5198 9.32675 10.5398 9.32675 10.5531 9.34008C10.6264 9.40008 10.6998 9.45341 10.7731 9.51342C10.7998 9.53341 10.7998 9.57341 10.7664 9.58675C10.4198 9.79341 10.0531 9.96008 9.67309 10.1067C9.64642 10.1134 9.63975 10.1467 9.64642 10.1667C9.85975 10.5734 10.0998 10.9601 10.3598 11.3267C10.3798 11.3334 10.3998 11.3401 10.4198 11.3334C11.5664 10.9801 12.7198 10.4467 13.9198 9.56675C13.9331 9.56008 13.9398 9.54675 13.9398 9.53341C14.2331 6.51341 13.4531 3.89341 11.8731 1.56675C11.8664 1.56008 11.8598 1.55341 11.8464 1.55341ZM4.67975 7.94008C3.99309 7.94008 3.41975 7.30675 3.41975 6.52675C3.41975 5.74675 3.97975 5.11341 4.67975 5.11341C5.38642 5.11341 5.94642 5.75341 5.93975 6.52675C5.93975 7.30675 5.37975 7.94008 4.67975 7.94008ZM9.32642 7.94008C8.63975 7.94008 8.06642 7.30675 8.06642 6.52675C8.06642 5.74675 8.62642 5.11341 9.32642 5.11341C10.0331 5.11341 10.5931 5.75341 10.5864 6.52675C10.5864 7.30675 10.0331 7.94008 9.32642 7.94008Z" fill="black"/>
</svg>
