<svg width="20" height="20" viewBox="0 0 20 20" fill="none" xmlns="http://www.w3.org/2000/svg">
<path d="M8.71965 7.28829C8.90881 7.13829 9.13381 7.02913 9.37465 6.95996V9.28913C9.13693 9.22403 8.91436 9.11275 8.71965 8.96163C8.39131 8.70079 8.26465 8.39413 8.26465 8.12496C8.26465 7.85579 8.39131 7.54913 8.71965 7.28829ZM10.6246 13.0516V10.6983C10.9138 10.7691 11.178 10.8883 11.3921 11.0491C11.748 11.3158 11.8746 11.6208 11.8746 11.875C11.8746 12.1291 11.748 12.4341 11.3921 12.7008C11.1625 12.8679 10.9014 12.9878 10.6246 13.0516Z" fill="black"/>
<path fill-rule="evenodd" clip-rule="evenodd" d="M10 1.875C5.5125 1.875 1.875 5.5125 1.875 10C1.875 14.4875 5.5125 18.125 10 18.125C14.4875 18.125 18.125 14.4875 18.125 10C18.125 5.5125 14.4875 1.875 10 1.875ZM10.625 5C10.625 4.83424 10.5592 4.67527 10.4419 4.55806C10.3247 4.44085 10.1658 4.375 10 4.375C9.83424 4.375 9.67527 4.44085 9.55806 4.55806C9.44085 4.67527 9.375 4.83424 9.375 5V5.68C8.85239 5.76794 8.35984 5.98443 7.94167 6.31C7.34833 6.78167 7.015 7.435 7.015 8.125C7.015 8.81583 7.34833 9.46833 7.9425 9.94C8.36083 10.2733 8.86083 10.4792 9.375 10.57V13.0517C9.09818 12.9875 8.83715 12.8682 8.6075 12.7008L7.875 12.1508C7.80934 12.1016 7.73462 12.0658 7.65511 12.0454C7.5756 12.025 7.49286 12.0205 7.41161 12.0321C7.24752 12.0556 7.09946 12.1432 7 12.2758C6.90054 12.4084 6.85784 12.5751 6.88128 12.7392C6.90472 12.9033 6.99239 13.0514 7.125 13.1508L7.8575 13.7008C8.30167 14.0342 8.83167 14.2383 9.375 14.3258V15C9.375 15.1658 9.44085 15.3247 9.55806 15.4419C9.67527 15.5592 9.83424 15.625 10 15.625C10.1658 15.625 10.3247 15.5592 10.4419 15.4419C10.5592 15.3247 10.625 15.1658 10.625 15V14.325C11.1738 14.2425 11.6945 14.0284 12.1425 13.7008C12.7633 13.235 13.125 12.5808 13.125 11.875C13.125 11.1692 12.7633 10.515 12.1425 10.0492C11.6946 9.72128 11.1739 9.50683 10.625 9.42417V6.96167C10.8667 7.03 11.0908 7.13917 11.28 7.28917L11.6258 7.56417C11.7557 7.66727 11.9212 7.71457 12.0859 7.69566C12.2506 7.67675 12.4011 7.59318 12.5042 7.46333C12.6073 7.33349 12.6546 7.168 12.6357 7.00328C12.6167 6.83856 12.5332 6.6881 12.4033 6.585L12.0575 6.31C11.6395 5.98486 11.1472 5.76866 10.625 5.68083V5Z" fill="black"/>
</svg>
