<svg width="18" height="18" viewBox="0 0 18 18" fill="none" xmlns="http://www.w3.org/2000/svg">
<path d="M7.84895 6.55954C8.0192 6.42454 8.2217 6.32629 8.43845 6.26404V8.36029C8.2245 8.3017 8.02419 8.20155 7.84895 8.06554C7.55345 7.83079 7.43945 7.55479 7.43945 7.31254C7.43945 7.07029 7.55345 6.79429 7.84895 6.55954ZM9.56345 11.7465V9.62854C9.8237 9.69229 10.0615 9.79954 10.2542 9.94429C10.5745 10.1843 10.6885 10.4588 10.6885 10.6875C10.6885 10.9163 10.5745 11.1908 10.2542 11.4308C10.0475 11.5812 9.81255 11.6891 9.56345 11.7465Z" fill="white"/>
<path fill-rule="evenodd" clip-rule="evenodd" d="M9 1.6875C4.96125 1.6875 1.6875 4.96125 1.6875 9C1.6875 13.0387 4.96125 16.3125 9 16.3125C13.0387 16.3125 16.3125 13.0387 16.3125 9C16.3125 4.96125 13.0387 1.6875 9 1.6875ZM9.5625 4.5C9.5625 4.35082 9.50324 4.20774 9.39775 4.10225C9.29226 3.99676 9.14918 3.9375 9 3.9375C8.85082 3.9375 8.70774 3.99676 8.60225 4.10225C8.49676 4.20774 8.4375 4.35082 8.4375 4.5V5.112C7.96715 5.19115 7.52385 5.38599 7.1475 5.679C6.6135 6.1035 6.3135 6.6915 6.3135 7.3125C6.3135 7.93425 6.6135 8.5215 7.14825 8.946C7.52475 9.246 7.97475 9.43125 8.4375 9.513V11.7465C8.18836 11.6888 7.95343 11.5814 7.74675 11.4307L7.0875 10.9358C7.02841 10.8914 6.96116 10.8592 6.8896 10.8408C6.81804 10.8225 6.74358 10.8185 6.67045 10.8289C6.52277 10.85 6.38951 10.9289 6.3 11.0483C6.21049 11.1676 6.17206 11.3176 6.19315 11.4653C6.21425 11.613 6.29315 11.7462 6.4125 11.8358L7.07175 12.3307C7.4715 12.6307 7.9485 12.8145 8.4375 12.8932V13.5C8.4375 13.6492 8.49676 13.7923 8.60225 13.8977C8.70774 14.0032 8.85082 14.0625 9 14.0625C9.14918 14.0625 9.29226 14.0032 9.39775 13.8977C9.50324 13.7923 9.5625 13.6492 9.5625 13.5V12.8925C10.0564 12.8183 10.525 12.6255 10.9283 12.3307C11.487 11.9115 11.8125 11.3228 11.8125 10.6875C11.8125 10.0522 11.487 9.4635 10.9283 9.04425C10.5251 8.74915 10.0565 8.55614 9.5625 8.48175V6.2655C9.78 6.327 9.98175 6.42525 10.152 6.56025L10.4633 6.80775C10.5801 6.90054 10.729 6.94311 10.8773 6.92609C11.0255 6.90907 11.161 6.83386 11.2537 6.717C11.3465 6.60014 11.3891 6.4512 11.3721 6.30296C11.3551 6.15471 11.2799 6.01929 11.163 5.9265L10.8517 5.679C10.4755 5.38637 10.0325 5.19179 9.5625 5.11275V4.5Z" fill="white"/>
</svg>
