<svg width="17" height="16" viewBox="0 0 17 16" fill="none" xmlns="http://www.w3.org/2000/svg">
<path d="M15.2375 1.51246C14.9093 1.18433 14.4642 1 14.0002 1C13.5361 1 13.091 1.18433 12.7628 1.51246L11.9915 2.28379L14.4662 4.75846L15.2375 3.98713C15.5656 3.65895 15.75 3.21387 15.75 2.74979C15.75 2.28571 15.5656 1.84064 15.2375 1.51246ZM13.7588 5.46579L11.2842 2.99113L5.68417 8.59113C5.27274 9.00235 4.97029 9.50964 4.80417 10.0671L4.27084 11.8571C4.24509 11.9435 4.24317 12.0352 4.26528 12.1226C4.28739 12.21 4.33271 12.2898 4.39645 12.3535C4.46018 12.4173 4.53996 12.4626 4.62734 12.4847C4.71472 12.5068 4.80646 12.5049 4.89284 12.4791L6.68284 11.9458C7.24032 11.7797 7.74761 11.4772 8.15884 11.0658L13.7588 5.46579Z" fill="#262925"/>
<path d="M4.25 3.5C3.71957 3.5 3.21086 3.71071 2.83579 4.08579C2.46071 4.46086 2.25 4.96957 2.25 5.5V12.5C2.25 13.0304 2.46071 13.5391 2.83579 13.9142C3.21086 14.2893 3.71957 14.5 4.25 14.5H11.25C11.7804 14.5 12.2891 14.2893 12.6642 13.9142C13.0393 13.5391 13.25 13.0304 13.25 12.5V9C13.25 8.86739 13.1973 8.74022 13.1036 8.64645C13.0098 8.55268 12.8826 8.5 12.75 8.5C12.6174 8.5 12.4902 8.55268 12.3964 8.64645C12.3027 8.74022 12.25 8.86739 12.25 9V12.5C12.25 12.7652 12.1446 13.0196 11.9571 13.2071C11.7696 13.3946 11.5152 13.5 11.25 13.5H4.25C3.98478 13.5 3.73043 13.3946 3.54289 13.2071C3.35536 13.0196 3.25 12.7652 3.25 12.5V5.5C3.25 5.23478 3.35536 4.98043 3.54289 4.79289C3.73043 4.60536 3.98478 4.5 4.25 4.5H7.75C7.88261 4.5 8.00979 4.44732 8.10355 4.35355C8.19732 4.25979 8.25 4.13261 8.25 4C8.25 3.86739 8.19732 3.74021 8.10355 3.64645C8.00979 3.55268 7.88261 3.5 7.75 3.5H4.25Z" fill="#262925"/>
</svg>
