<svg width="32" height="32" viewBox="0 0 32 32" fill="none" xmlns="http://www.w3.org/2000/svg">
<path d="M0 16C0 7.16344 7.16344 0 16 0C24.8366 0 32 7.16344 32 16C32 24.8366 24.8366 32 16 32C7.16344 32 0 24.8366 0 16Z" fill="#EB4226"/>
<path d="M19.8512 14.45H18.4512H17.9512V13.95V12.4V11.9H18.4512H19.5012C19.7762 11.9 20.0012 11.7 20.0012 11.4V8.75C20.0012 8.475 19.8012 8.25 19.5012 8.25H17.6762C15.7012 8.25 14.3262 9.65 14.3262 11.725V13.9V14.4H13.8262H12.1262C11.7762 14.4 11.4512 14.675 11.4512 15.075V16.875C11.4512 17.225 11.7262 17.55 12.1262 17.55H13.7762H14.2762V18.05V23.075C14.2762 23.425 14.5512 23.75 14.9512 23.75H17.3012C17.4512 23.75 17.5762 23.675 17.6762 23.575C17.7762 23.475 17.8512 23.3 17.8512 23.15V18.075V17.575H18.3762H19.5012C19.8262 17.575 20.0762 17.375 20.1262 17.075V17.05V17.025L20.4762 15.3C20.5012 15.125 20.4762 14.925 20.3262 14.725C20.2762 14.6 20.0512 14.475 19.8512 14.45Z" fill="white"/>
</svg>
