<svg width="14" height="14" viewBox="0 0 14 14" fill="none" xmlns="http://www.w3.org/2000/svg">
<path d="M5.0892 12.8489V10.8105C5.0892 10.2901 5.51413 9.86824 6.03831 9.86824H7.95442C8.20614 9.86824 8.44755 9.96751 8.62554 10.1442C8.80353 10.3209 8.90353 10.5606 8.90353 10.8105V12.8489C8.90194 13.0653 8.98739 13.2733 9.14093 13.4268C9.29447 13.5804 9.50338 13.6667 9.72131 13.6667H11.0286C11.6391 13.6683 12.2252 13.4286 12.6575 13.0006C13.0897 12.5726 13.3327 11.9914 13.3327 11.3853V5.57795C13.3327 5.08835 13.1141 4.62394 12.7358 4.30982L8.2887 0.783953C7.51512 0.165748 6.40676 0.185709 5.65628 0.83136L1.31069 4.30982C0.914509 4.61468 0.677717 5.08046 0.666016 5.57795V11.3793C0.666016 12.6426 1.6976 13.6667 2.97013 13.6667H4.24754C4.70017 13.6667 5.06801 13.3042 5.07129 12.8549L5.0892 12.8489Z" fill="#262925"/>
</svg>
