<svg width="13" height="14" viewBox="0 0 13 14" fill="none" xmlns="http://www.w3.org/2000/svg">
<path fill-rule="evenodd" clip-rule="evenodd" d="M6.5 0.5C2.91 0.5 0 3.41 0 7C0 10.59 2.91 13.5 6.5 13.5C10.09 13.5 13 10.59 13 7C13 3.41 10.09 0.5 6.5 0.5ZM7 5C7 4.86739 6.94732 4.74022 6.85355 4.64645C6.75979 4.55268 6.63261 4.5 6.5 4.5C6.36739 4.5 6.24022 4.55268 6.14645 4.64645C6.05268 4.74022 6 4.86739 6 5V6.5H4.5C4.36739 6.5 4.24022 6.55268 4.14645 6.64645C4.05268 6.74022 4 6.86739 4 7C4 7.13261 4.05268 7.25979 4.14645 7.35355C4.24022 7.44732 4.36739 7.5 4.5 7.5H6V9C6 9.13261 6.05268 9.25979 6.14645 9.35355C6.24022 9.44732 6.36739 9.5 6.5 9.5C6.63261 9.5 6.75979 9.44732 6.85355 9.35355C6.94732 9.25979 7 9.13261 7 9V7.5H8.5C8.63261 7.5 8.75979 7.44732 8.85355 7.35355C8.94732 7.25979 9 7.13261 9 7C9 6.86739 8.94732 6.74022 8.85355 6.64645C8.75979 6.55268 8.63261 6.5 8.5 6.5H7V5Z" fill="black"/>
</svg>
