<svg width="20" height="20" viewBox="0 0 20 20" fill="none" xmlns="http://www.w3.org/2000/svg">
<path fill-rule="evenodd" clip-rule="evenodd" d="M6.25 4.375C6.25 3.71196 6.51339 3.07607 6.98223 2.60723C7.45107 2.13839 8.08696 1.875 8.75 1.875H11.25C11.913 1.875 12.5489 2.13839 13.0178 2.60723C13.4866 3.07607 13.75 3.71196 13.75 4.375V4.54583C14.5275 4.61667 15.2975 4.71 16.0617 4.82417C17.2733 5.00583 18.125 6.06 18.125 7.255V9.7825C18.125 10.7917 17.5133 11.7425 16.5117 12.0758C14.4115 12.7729 12.2128 13.1272 10 13.125C7.725 13.125 5.53583 12.7567 3.48833 12.0758C2.48667 11.7425 1.875 10.7917 1.875 9.7825V7.255C1.875 6.06 2.72667 5.005 3.93833 4.82417C4.70608 4.70935 5.47695 4.61653 6.25 4.54583V4.375ZM12.5 4.375V4.45C10.8349 4.34887 9.16513 4.34887 7.5 4.45V4.375C7.5 4.04348 7.6317 3.72554 7.86612 3.49112C8.10054 3.2567 8.41848 3.125 8.75 3.125H11.25C11.5815 3.125 11.8995 3.2567 12.1339 3.49112C12.3683 3.72554 12.5 4.04348 12.5 4.375ZM10 11.25C10.1658 11.25 10.3247 11.1842 10.4419 11.0669C10.5592 10.9497 10.625 10.7908 10.625 10.625C10.625 10.4592 10.5592 10.3003 10.4419 10.1831C10.3247 10.0658 10.1658 10 10 10C9.83424 10 9.67527 10.0658 9.55806 10.1831C9.44085 10.3003 9.375 10.4592 9.375 10.625C9.375 10.7908 9.44085 10.9497 9.55806 11.0669C9.67527 11.1842 9.83424 11.25 10 11.25Z" fill="#262925"/>
<path d="M2.5 15.3333V13.0033C2.68985 13.1072 2.88872 13.1936 3.09417 13.2616C5.32141 14.0011 7.65321 14.377 10 14.375C12.41 14.375 14.7333 13.985 16.9058 13.2625C17.1158 13.1925 17.3142 13.105 17.5 13.0033V15.3333C17.5 16.5433 16.6275 17.6066 15.3975 17.7691C13.6308 18.0041 11.8292 18.125 10 18.125C8.19496 18.1253 6.39187 18.0064 4.6025 17.7691C3.3725 17.6066 2.5 16.5433 2.5 15.3333Z" fill="#262925"/>
</svg>
