<svg width="18" height="18" viewBox="0 0 18 18" fill="none" xmlns="http://www.w3.org/2000/svg">
<path fill-rule="evenodd" clip-rule="evenodd" d="M7.875 2.81266C7.21018 2.81266 6.55188 2.94361 5.93766 3.19802C5.32345 3.45244 4.76537 3.82534 4.29527 4.29543C3.82518 4.76553 3.45227 5.32362 3.19786 5.93783C2.94345 6.55204 2.8125 7.21034 2.8125 7.87516C2.8125 8.53998 2.94345 9.19829 3.19786 9.8125C3.45227 10.4267 3.82518 10.9848 4.29527 11.4549C4.76537 11.925 5.32345 12.2979 5.93766 12.5523C6.55188 12.8067 7.21018 12.9377 7.875 12.9377C9.21766 12.9377 10.5053 12.4043 11.4547 11.4549C12.4041 10.5055 12.9375 9.21782 12.9375 7.87516C12.9375 6.5325 12.4041 5.24484 11.4547 4.29543C10.5053 3.34603 9.21766 2.81266 7.875 2.81266ZM1.6875 7.87516C1.68763 6.88148 1.92708 5.90245 2.38559 5.02088C2.8441 4.13932 3.50819 3.38114 4.32168 2.8105C5.13516 2.23986 6.07412 1.87353 7.05912 1.7425C8.04412 1.61148 9.04619 1.71961 9.98057 2.05775C10.9149 2.3959 11.7541 2.9541 12.4272 3.68515C13.1002 4.4162 13.5872 5.29859 13.8471 6.25768C14.107 7.21677 14.1321 8.22435 13.9202 9.19518C13.7084 10.166 13.2658 11.0715 12.63 11.8352L16.1475 15.3527C16.2028 15.4042 16.2471 15.4663 16.2778 15.5353C16.3086 15.6043 16.3251 15.6787 16.3264 15.7543C16.3278 15.8298 16.3139 15.9048 16.2856 15.9749C16.2573 16.0449 16.2152 16.1085 16.1618 16.1619C16.1084 16.2154 16.0447 16.2575 15.9747 16.2858C15.9047 16.314 15.8296 16.3279 15.7541 16.3266C15.6786 16.3253 15.6041 16.3087 15.5351 16.278C15.4661 16.2473 15.404 16.2029 15.3525 16.1477L11.835 12.6302C10.9314 13.3828 9.83207 13.8623 8.66574 14.0126C7.49942 14.1629 6.31441 13.9777 5.24956 13.4787C4.1847 12.9797 3.28409 12.1876 2.65322 11.1952C2.02236 10.2028 1.68737 9.05113 1.6875 7.87516Z" fill="#C5C5C5"/>
</svg>
