<svg width="14" height="14" viewBox="0 0 14 14" fill="none" xmlns="http://www.w3.org/2000/svg">
<path fill-rule="evenodd" clip-rule="evenodd" d="M7.309 9.49672C7.22696 9.57865 7.11577 9.62466 6.99983 9.62466C6.88389 9.62466 6.77269 9.57865 6.69066 9.49672L2.31566 5.12172C2.23838 5.03878 2.19631 4.92909 2.19831 4.81574C2.20031 4.7024 2.24623 4.59426 2.32638 4.5141C2.40654 4.43395 2.51468 4.38803 2.62802 4.38603C2.74137 4.38403 2.85106 4.4261 2.934 4.50338L6.99983 8.56922L11.0657 4.50338C11.1057 4.4604 11.154 4.42592 11.2077 4.40201C11.2613 4.3781 11.3193 4.36524 11.378 4.3642C11.4368 4.36317 11.4951 4.37397 11.5496 4.39598C11.6041 4.41798 11.6536 4.45073 11.6951 4.49228C11.7366 4.53382 11.7694 4.58331 11.7914 4.63778C11.8134 4.69226 11.8242 4.75061 11.8232 4.80935C11.8221 4.8681 11.8093 4.92603 11.7854 4.9797C11.7615 5.03336 11.727 5.08166 11.684 5.12172L7.309 9.49672Z" fill="black"/>
</svg>
