<svg width="17" height="16" viewBox="0 0 17 16" fill="none" xmlns="http://www.w3.org/2000/svg">
<path d="M2.81917 1.60261C2.73253 1.57744 2.64069 1.57619 2.55339 1.59898C2.46609 1.62177 2.38659 1.66775 2.32331 1.73206C2.26002 1.79637 2.21532 1.87661 2.19393 1.96426C2.17255 2.05191 2.17528 2.14372 2.20184 2.22995L3.82317 7.49995H9.50051C9.63312 7.49995 9.76029 7.55263 9.85406 7.64639C9.94783 7.74016 10.0005 7.86734 10.0005 7.99995C10.0005 8.13256 9.94783 8.25973 9.85406 8.3535C9.76029 8.44727 9.63312 8.49995 9.50051 8.49995H3.82317L2.20184 13.7699C2.17544 13.8561 2.17283 13.9479 2.19428 14.0354C2.21574 14.123 2.26046 14.2031 2.32372 14.2673C2.38697 14.3315 2.46642 14.3774 2.55363 14.4002C2.64085 14.423 2.7326 14.4217 2.81917 14.3966C7.22915 13.1142 11.3878 11.0882 15.1158 8.40595C15.1803 8.35964 15.2327 8.29867 15.2689 8.22808C15.3051 8.15748 15.324 8.07928 15.324 7.99995C15.324 7.92061 15.3051 7.84242 15.2689 7.77182C15.2327 7.70122 15.1803 7.64025 15.1158 7.59395C11.3879 4.91148 7.22921 2.88525 2.81917 1.60261Z" fill="white"/>
</svg>
