<svg width="20" height="20" viewBox="0 0 20 20" fill="none" xmlns="http://www.w3.org/2000/svg">
<path fill-rule="evenodd" clip-rule="evenodd" d="M9.85667 1.875C9.09333 1.875 8.44083 2.4275 8.315 3.18083L8.23917 3.63833C8.21815 3.75317 8.16727 3.86046 8.09164 3.94939C8.01601 4.03833 7.9183 4.1058 7.80833 4.145C7.67369 4.19537 7.54083 4.2504 7.41 4.31C7.30449 4.36016 7.18763 4.38164 7.07118 4.37228C6.95473 4.36291 6.84281 4.32304 6.74667 4.25667L6.36917 3.98667C6.06816 3.77161 5.70062 3.67034 5.33194 3.70085C4.96327 3.73137 4.61738 3.89171 4.35583 4.15333L4.15333 4.35583C3.89171 4.61738 3.73137 4.96327 3.70085 5.33194C3.67034 5.70062 3.77161 6.06816 3.98667 6.36917L4.25667 6.74667C4.32304 6.84281 4.36291 6.95473 4.37228 7.07118C4.38164 7.18763 4.36016 7.30449 4.31 7.41C4.2504 7.54083 4.19537 7.67368 4.145 7.80833C4.1058 7.9183 4.03833 8.01601 3.94939 8.09164C3.86046 8.16727 3.75317 8.21815 3.63833 8.23917L3.18 8.31583C2.81535 8.37676 2.48411 8.56502 2.24517 8.84714C2.00623 9.12925 1.87507 9.48696 1.875 9.85667V10.1433C1.875 10.9067 2.4275 11.5592 3.18083 11.685L3.63833 11.7608C3.8725 11.8 4.06167 11.9692 4.145 12.1917C4.195 12.3267 4.25083 12.4592 4.31 12.59C4.36016 12.6955 4.38164 12.8124 4.37228 12.9288C4.36291 13.0453 4.32304 13.1572 4.25667 13.2533L3.98667 13.6308C3.77161 13.9318 3.67034 14.2994 3.70085 14.6681C3.73137 15.0367 3.89171 15.3826 4.15333 15.6442L4.35583 15.8467C4.89583 16.3867 5.7475 16.4575 6.36917 16.0133L6.74667 15.7433C6.84281 15.677 6.95473 15.6371 7.07118 15.6277C7.18763 15.6184 7.30449 15.6398 7.41 15.69C7.54083 15.7492 7.67333 15.8042 7.80833 15.855C8.03083 15.9383 8.2 16.1275 8.23917 16.3617L8.31583 16.82C8.44083 17.5725 9.0925 18.125 9.85667 18.125H10.1433C10.9067 18.125 11.5592 17.5725 11.685 16.8192L11.7608 16.3617C11.7819 16.2468 11.8327 16.1395 11.9084 16.0506C11.984 15.9617 12.0817 15.8942 12.1917 15.855C12.3263 15.8046 12.4592 15.7496 12.59 15.69C12.6955 15.6398 12.8124 15.6184 12.9288 15.6277C13.0453 15.6371 13.1572 15.677 13.2533 15.7433L13.6308 16.0133C13.9318 16.2284 14.2994 16.3297 14.6681 16.2991C15.0367 16.2686 15.3826 16.1083 15.6442 15.8467L15.8467 15.6442C16.3867 15.1042 16.4575 14.2525 16.0133 13.6308L15.7433 13.2533C15.677 13.1572 15.6371 13.0453 15.6277 12.9288C15.6184 12.8124 15.6398 12.6955 15.69 12.59C15.7492 12.4592 15.8042 12.3267 15.855 12.1917C15.9383 11.9692 16.1275 11.8 16.3617 11.7608L16.82 11.685C17.1848 11.624 17.5161 11.4357 17.7551 11.1534C17.9941 10.8711 18.1251 10.5132 18.125 10.1433V9.85667C18.125 9.09333 17.5725 8.44083 16.8192 8.315L16.3617 8.23917C16.2468 8.21815 16.1395 8.16727 16.0506 8.09164C15.9617 8.01601 15.8942 7.9183 15.855 7.80833C15.8046 7.6737 15.7496 7.54084 15.69 7.41C15.6398 7.30449 15.6184 7.18763 15.6277 7.07118C15.6371 6.95473 15.677 6.84281 15.7433 6.74667L16.0133 6.36917C16.2284 6.06816 16.3297 5.70062 16.2991 5.33194C16.2686 4.96327 16.1083 4.61738 15.8467 4.35583L15.6442 4.15333C15.3826 3.89171 15.0367 3.73137 14.6681 3.70085C14.2994 3.67034 13.9318 3.77161 13.6308 3.98667L13.2533 4.25667C13.1572 4.32304 13.0453 4.36291 12.9288 4.37228C12.8124 4.38164 12.6955 4.36016 12.59 4.31C12.4592 4.25041 12.3263 4.19538 12.1917 4.145C12.0817 4.1058 11.984 4.03833 11.9084 3.94939C11.8327 3.86046 11.7819 3.75317 11.7608 3.63833L11.685 3.18C11.624 2.81521 11.4357 2.48386 11.1534 2.2449C10.8711 2.00595 10.5132 1.87487 10.1433 1.875H9.85667ZM10 13.125C10.8288 13.125 11.6237 12.7958 12.2097 12.2097C12.7958 11.6237 13.125 10.8288 13.125 10C13.125 9.1712 12.7958 8.37634 12.2097 7.79029C11.6237 7.20424 10.8288 6.875 10 6.875C9.1712 6.875 8.37634 7.20424 7.79029 7.79029C7.20424 8.37634 6.875 9.1712 6.875 10C6.875 10.8288 7.20424 11.6237 7.79029 12.2097C8.37634 12.7958 9.1712 13.125 10 13.125Z" fill="black"/>
</svg>
