<svg width="17" height="16" viewBox="0 0 17 16" fill="none" xmlns="http://www.w3.org/2000/svg">
<path fill-rule="evenodd" clip-rule="evenodd" d="M8.156 1.44672C8.24889 1.35866 8.37201 1.30957 8.5 1.30957C8.62799 1.30957 8.75111 1.35866 8.844 1.44672C10.2592 2.79064 12.1439 3.5276 14.0953 3.50005C14.2016 3.49867 14.3056 3.53121 14.3922 3.59295C14.4787 3.65469 14.5434 3.74241 14.5767 3.84338C14.858 4.70082 15.0009 5.59763 15 6.50005C15 10.4614 12.2907 13.7887 8.62467 14.732C8.54289 14.7531 8.45711 14.7531 8.37533 14.732C4.70933 13.7887 2 10.4614 2 6.50005C2 5.57338 2.14867 4.68005 2.42333 3.84338C2.45652 3.74229 2.5211 3.65442 2.60766 3.59255C2.69423 3.53068 2.79827 3.49805 2.90467 3.49938L3 3.50005C4.99733 3.50005 6.812 2.72005 8.156 1.44672ZM8.5 5.50005C8.63261 5.50005 8.75979 5.55273 8.85355 5.64649C8.94732 5.74026 9 5.86744 9 6.00005V8.50005C9 8.63266 8.94732 8.75983 8.85355 8.8536C8.75979 8.94737 8.63261 9.00005 8.5 9.00005C8.36739 9.00005 8.24022 8.94737 8.14645 8.8536C8.05268 8.75983 8 8.63266 8 8.50005V6.00005C8 5.86744 8.05268 5.74026 8.14645 5.64649C8.24022 5.55273 8.36739 5.50005 8.5 5.50005ZM8.5 10C8.36739 10 8.24022 10.0527 8.14645 10.1465C8.05268 10.2403 8 10.3674 8 10.5V10.5054C8 10.7814 8.224 11.0054 8.5 11.0054H8.50533C8.63794 11.0054 8.76512 10.9527 8.85889 10.8589C8.95266 10.7652 9.00533 10.638 9.00533 10.5054V10.5C9.00533 10.3674 8.95266 10.2403 8.85889 10.1465C8.76512 10.0527 8.63794 10 8.50533 10H8.5Z" fill="#8E6100"/>
</svg>
