<svg width="20" height="20" viewBox="0 0 20 20" fill="none" xmlns="http://www.w3.org/2000/svg">
<path d="M15.3125 1.875C14.45 1.875 13.75 2.575 13.75 3.4375V16.5625C13.75 17.425 14.45 18.125 15.3125 18.125H15.9375C16.8 18.125 17.5 17.425 17.5 16.5625V3.4375C17.5 2.57417 16.8 1.875 15.9375 1.875H15.3125ZM8.125 7.1875C8.125 6.32417 8.825 5.625 9.6875 5.625H10.3125C11.1758 5.625 11.875 6.325 11.875 7.1875V16.5625C11.875 17.425 11.175 18.125 10.3125 18.125H9.6875C9.2731 18.125 8.87567 17.9604 8.58264 17.6674C8.28962 17.3743 8.125 16.9769 8.125 16.5625V7.1875ZM2.5 10.9375C2.5 10.0742 3.2 9.375 4.0625 9.375H4.6875C5.55083 9.375 6.25 10.075 6.25 10.9375V16.5625C6.25 17.425 5.55 18.125 4.6875 18.125H4.0625C3.6481 18.125 3.25067 17.9604 2.95765 17.6674C2.66462 17.3743 2.5 16.9769 2.5 16.5625V10.9375Z" fill="#262925"/>
</svg>
