<svg width="16" height="16" viewBox="0 0 16 16" fill="none" xmlns="http://www.w3.org/2000/svg">
<path d="M7.99967 1.3335C4.31967 1.3335 1.33301 4.32016 1.33301 8.00016C1.33301 11.6802 4.31967 14.6668 7.99967 14.6668C11.6797 14.6668 14.6663 11.6802 14.6663 8.00016C14.6663 4.32016 11.6797 1.3335 7.99967 1.3335ZM11.093 5.86683C10.993 6.92016 10.5597 9.48016 10.3397 10.6602C10.2463 11.1602 10.0597 11.3268 9.88634 11.3468C9.49967 11.3802 9.20634 11.0935 8.83301 10.8468C8.24634 10.4602 7.91301 10.2202 7.34634 9.84683C6.68634 9.4135 7.11301 9.1735 7.49301 8.78683C7.59301 8.68683 9.29967 7.1335 9.33301 6.9935C9.33764 6.97229 9.33702 6.95028 9.33121 6.92937C9.3254 6.90845 9.31458 6.88928 9.29967 6.8735C9.25967 6.84016 9.20634 6.8535 9.15967 6.86016C9.09967 6.8735 8.16634 7.4935 6.34634 8.72016C6.07967 8.90016 5.83967 8.9935 5.62634 8.98683C5.38634 8.98016 4.93301 8.8535 4.59301 8.74016C4.17301 8.60683 3.84634 8.5335 3.87301 8.30016C3.88634 8.18016 4.05301 8.06016 4.36634 7.9335C6.31301 7.08683 7.60634 6.52683 8.25301 6.26016C10.1063 5.48683 10.4863 5.3535 10.7397 5.3535C10.793 5.3535 10.9197 5.36683 10.9997 5.4335C11.0663 5.48683 11.0863 5.56016 11.093 5.6135C11.0863 5.6535 11.0997 5.7735 11.093 5.86683Z" fill="black"/>
</svg>
