<svg width="17" height="16" viewBox="0 0 17 16" fill="none" xmlns="http://www.w3.org/2000/svg">
<path fill-rule="evenodd" clip-rule="evenodd" d="M11.5 2.9853V3.13663C12.366 3.21582 13.2285 3.32969 14.0853 3.47797C14.15 3.48917 14.2119 3.51301 14.2674 3.54812C14.3229 3.58324 14.3709 3.62893 14.4087 3.6826C14.4465 3.73628 14.4734 3.79687 14.4878 3.86093C14.5022 3.925 14.5039 3.99127 14.4927 4.05597C14.4815 4.12066 14.4576 4.18252 14.4225 4.23801C14.3874 4.29349 14.3417 4.34152 14.288 4.37934C14.2344 4.41716 14.1738 4.44405 14.1097 4.45845C14.0456 4.47286 13.9794 4.4745 13.9147 4.4633L13.7753 4.43997L13.1053 13.1533C13.0667 13.6557 12.8399 14.125 12.4702 14.4674C12.1005 14.8097 11.6152 14.9999 11.1113 15H5.88934C5.38547 14.9999 4.90017 14.8097 4.53049 14.4674C4.1608 14.125 3.93397 13.6557 3.89534 13.1533L3.22467 4.43997L3.08534 4.4633C3.02064 4.4745 2.95437 4.47286 2.89031 4.45845C2.82625 4.44405 2.76565 4.41716 2.71198 4.37934C2.60358 4.30295 2.52997 4.18663 2.50734 4.05597C2.48471 3.9253 2.51491 3.791 2.5913 3.6826C2.66769 3.57421 2.78401 3.5006 2.91467 3.47797C3.77152 3.32952 4.63399 3.21565 5.5 3.13663V2.9853C5.5 1.94263 6.30867 1.05197 7.37734 1.01797C8.12581 0.994012 8.87486 0.994012 9.62334 1.01797C10.692 1.05197 11.5 1.94263 11.5 2.9853ZM7.40934 2.0173C8.13649 1.99404 8.86419 1.99404 9.59134 2.0173C10.0933 2.0333 10.5 2.45597 10.5 2.9853V3.06063C9.1679 2.97973 7.83211 2.97973 6.5 3.06063V2.9853C6.5 2.45597 6.906 2.0333 7.40934 2.0173ZM7.17267 5.98063C7.17013 5.91497 7.15469 5.85045 7.12721 5.79076C7.09974 5.73107 7.06078 5.67738 7.01255 5.63274C6.96433 5.58811 6.90779 5.55341 6.84615 5.53063C6.78452 5.50785 6.719 5.49743 6.65334 5.49997C6.58768 5.5025 6.52316 5.51795 6.46347 5.54542C6.40378 5.5729 6.35008 5.61186 6.30545 5.66008C6.26081 5.70831 6.22611 5.76485 6.20333 5.82649C6.18055 5.88812 6.17013 5.95364 6.17267 6.0193L6.404 12.0193C6.40913 12.1518 6.46669 12.2769 6.56402 12.367C6.61222 12.4116 6.66873 12.4462 6.73032 12.469C6.79191 12.4918 6.85739 12.5022 6.923 12.4996C6.98862 12.4971 7.0531 12.4817 7.11275 12.4542C7.1724 12.4267 7.22606 12.3878 7.27066 12.3396C7.31526 12.2914 7.34994 12.2349 7.3727 12.1733C7.39547 12.1117 7.40588 12.0463 7.40334 11.9806L7.17267 5.98063ZM10.826 6.0193C10.8309 5.95238 10.8223 5.88516 10.8006 5.82164C10.779 5.75812 10.7448 5.69961 10.7001 5.64959C10.6553 5.59957 10.601 5.55907 10.5403 5.53049C10.4796 5.50191 10.4137 5.48585 10.3467 5.48325C10.2796 5.48066 10.2127 5.49158 10.15 5.51538C10.0873 5.53918 10.03 5.57536 9.9815 5.62177C9.93304 5.66818 9.89441 5.72388 9.86793 5.78553C9.84144 5.84718 9.82764 5.91353 9.82734 5.98063L9.596 11.9806C9.59088 12.1132 9.63864 12.2425 9.72878 12.3398C9.81892 12.4372 9.94406 12.4948 10.0767 12.5C10.2093 12.5051 10.3385 12.4573 10.4359 12.3672C10.5333 12.277 10.5909 12.1519 10.596 12.0193L10.826 6.0193Z" fill="#EB4226"/>
</svg>
