<svg width="24" height="24" viewBox="0 0 24 24" fill="none" xmlns="http://www.w3.org/2000/svg">
<g clip-path="url(#clip0_383_800)">
<path d="M12 0C18.6343 0 24 5.36571 24 12C24 18.6343 18.6343 24 12 24C5.36571 24 0 18.6343 0 12C0 5.36571 5.36571 0 12 0ZM9.80571 18.3257C15.12 18.3257 18.0343 13.92 18.0343 10.0971V9.72C18.6 9.30857 19.0971 8.79429 19.4743 8.21143C18.96 8.43429 18.3943 8.58857 17.8114 8.67429C18.4114 8.31429 18.8743 7.74857 19.08 7.08C18.5143 7.40571 17.8971 7.64571 17.2457 7.78286C16.7143 7.21714 15.96 6.87429 15.1371 6.87429C13.5429 6.87429 12.24 8.17714 12.24 9.77143C12.24 9.99429 12.2571 10.2171 12.3257 10.4229C9.92571 10.3029 7.78286 9.15429 6.36 7.40571C6.12 7.83429 5.96571 8.33143 5.96571 8.86286C5.96571 9.85714 6.48 10.7486 7.25143 11.2629C6.77143 11.2629 6.32571 11.1257 5.94857 10.9029V10.9371C5.94857 12.3429 6.94286 13.5086 8.26286 13.7829C8.02286 13.8514 7.76571 13.8857 7.50857 13.8857C7.32 13.8857 7.14857 13.8686 6.96 13.8343C7.32 14.9829 8.4 15.8229 9.65143 15.84C8.65714 16.6114 7.40571 17.0743 6.05143 17.0743C5.81143 17.0743 5.58857 17.0743 5.36571 17.04C6.63429 17.8629 8.16 18.3429 9.78857 18.3429" fill="black"/>
</g>
<defs>
<clipPath id="clip0_383_800">
<rect width="24" height="24" fill="white"/>
</clipPath>
</defs>
</svg>
