<svg width="32" height="32" viewBox="0 0 32 32" fill="none" xmlns="http://www.w3.org/2000/svg">
<path d="M16 0.5C24.5604 0.5 31.5 7.43959 31.5 16C31.5 24.5604 24.5604 31.5 16 31.5C7.43959 31.5 0.5 24.5604 0.5 16C0.5 7.43959 7.43959 0.5 16 0.5Z" fill="white" stroke="#DFE4EA"/>
<path d="M22.636 12.3001C22.7251 12.1962 22.6089 12.0605 22.477 12.1091C22.1828 12.2176 21.9138 12.2892 21.5161 12.3334C22.0053 12.061 22.2328 11.6717 22.4179 11.1948C22.4625 11.0798 22.3279 10.9754 22.212 11.0304C21.7411 11.2536 21.233 11.4193 20.6988 11.5171C20.1707 10.9938 19.418 10.6667 18.5853 10.6667C16.9864 10.6667 15.6898 11.8726 15.6898 13.3595C15.6898 13.5706 15.7157 13.7762 15.7645 13.9731C13.466 13.866 11.4165 12.8828 9.99264 11.3752C9.89504 11.2718 9.71796 11.2855 9.65719 11.4116C9.49508 11.7478 9.40471 12.1208 9.40471 12.5135C9.40471 13.4476 9.91572 14.2717 10.6925 14.7546C10.3442 14.7441 10.0111 14.6763 9.70418 14.5611C9.55473 14.505 9.38341 14.6036 9.40349 14.7543C9.55764 15.9115 10.4946 16.8663 11.704 17.0919C11.4611 17.1537 11.2053 17.1865 10.9407 17.1865C10.8765 17.1865 10.8129 17.1845 10.7499 17.1806C10.5895 17.1707 10.4592 17.3141 10.5279 17.4514C10.9816 18.3569 11.9612 18.989 13.1012 19.0087C12.1103 19.7311 10.8619 20.1615 9.50526 20.1615C9.33799 20.1615 9.26623 20.3765 9.41463 20.4495C10.5608 21.0129 11.866 21.3334 13.2529 21.3334C18.5788 21.3334 21.4908 17.2303 21.4908 13.6718C21.4908 13.5553 21.4879 13.4388 21.4826 13.3234C21.9149 13.033 22.3035 12.6877 22.636 12.3001Z" fill="#111928"/>
</svg>
