<svg width="32" height="32" viewBox="0 0 32 32" fill="none" xmlns="http://www.w3.org/2000/svg">
<path d="M15.8857 0.5C24.3831 0.5 31.2722 7.38839 31.2725 15.8857C31.2725 24.3833 24.3833 31.2725 15.8857 31.2725C7.38839 31.2722 0.5 24.3831 0.5 15.8857C0.500225 7.38853 7.38853 0.500225 15.8857 0.5Z" fill="white" stroke="#DFE4EA"/>
<path d="M23.425 12.275C23.25 11.6 22.725 11.075 22.05 10.9C20.85 10.575 16 10.575 16 10.575C16 10.575 11.15 10.575 9.95 10.9C9.275 11.075 8.75 11.6 8.575 12.275C8.25 13.5 8.25 16 8.25 16C8.25 16 8.25 18.525 8.575 19.7249C8.75 20.4 9.275 20.925 9.95 21.0999C11.15 21.425 16 21.4249 16 21.4249C16 21.4249 20.85 21.425 22.05 21.0999C22.725 20.925 23.25 20.4 23.425 19.7249C23.75 18.525 23.75 16 23.75 16C23.75 16 23.75 13.5 23.425 12.275ZM14.45 18.325V13.675L18.475 16L14.45 18.325Z" fill="#111928"/>
</svg>
