<svg width="115" height="28" viewBox="0 0 115 28" fill="none" xmlns="http://www.w3.org/2000/svg">
<path d="M4.984 13.976C4.984 14.3493 5.22667 14.6573 5.712 14.9C6.216 15.124 6.82267 15.3293 7.532 15.516C8.24133 15.684 8.95067 15.908 9.66 16.188C10.3693 16.4493 10.9667 16.8973 11.452 17.532C11.956 18.1667 12.208 18.96 12.208 19.912C12.208 21.3493 11.6667 22.46 10.584 23.244C9.52 24.0093 8.18533 24.392 6.58 24.392C3.70533 24.392 1.74533 23.2813 0.7 21.06L3.836 19.296C4.24667 20.5093 5.16133 21.116 6.58 21.116C7.868 21.116 8.512 20.7147 8.512 19.912C8.512 19.5387 8.26 19.24 7.756 19.016C7.27067 18.7733 6.67333 18.5587 5.964 18.372C5.25467 18.1853 4.54533 17.952 3.836 17.672C3.12667 17.392 2.52 16.9533 2.016 16.356C1.53067 15.74 1.288 14.9747 1.288 14.06C1.288 12.6787 1.792 11.596 2.8 10.812C3.82667 10.0093 5.096 9.608 6.608 9.608C7.74667 9.608 8.78267 9.86933 9.716 10.392C10.6493 10.896 11.3867 11.624 11.928 12.576L8.848 14.256C8.4 13.304 7.65333 12.828 6.608 12.828C6.14133 12.828 5.74933 12.9307 5.432 13.136C5.13333 13.3413 4.984 13.6213 4.984 13.976ZM17.3915 18.484C17.8768 20.2387 19.1928 21.116 21.3395 21.116C22.7208 21.116 23.7662 20.6493 24.4755 19.716L27.3875 21.396C26.0062 23.3933 23.9715 24.392 21.2835 24.392C18.9688 24.392 17.1115 23.692 15.7115 22.292C14.3115 20.892 13.6115 19.128 13.6115 17C13.6115 14.8907 14.3022 13.136 15.6835 11.736C17.0648 10.3173 18.8382 9.608 21.0035 9.608C23.0568 9.608 24.7462 10.3173 26.0715 11.736C27.4155 13.1547 28.0875 14.9093 28.0875 17C28.0875 17.4667 28.0408 17.9613 27.9475 18.484H17.3915ZM17.3355 15.684H24.4755C24.2702 14.732 23.8408 14.0227 23.1875 13.556C22.5528 13.0893 21.8248 12.856 21.0035 12.856C20.0328 12.856 19.2302 13.108 18.5955 13.612C17.9608 14.0973 17.5408 14.788 17.3355 15.684ZM37.1637 24.392C35.0543 24.392 33.2903 23.6827 31.8717 22.264C30.4717 20.8453 29.7717 19.0907 29.7717 17C29.7717 14.9093 30.4717 13.1547 31.8717 11.736C33.2903 10.3173 35.0543 9.608 37.1637 9.608C38.5263 9.608 39.7677 9.93467 40.8877 10.588C42.0077 11.2413 42.857 12.1187 43.4357 13.22L40.3277 15.04C40.0477 14.4613 39.6183 14.004 39.0397 13.668C38.4797 13.332 37.845 13.164 37.1357 13.164C36.053 13.164 35.157 13.528 34.4477 14.256C33.7383 14.9653 33.3837 15.88 33.3837 17C33.3837 18.1013 33.7383 19.016 34.4477 19.744C35.157 20.4533 36.053 20.808 37.1357 20.808C37.8637 20.808 38.5077 20.6493 39.0677 20.332C39.6463 19.996 40.0757 19.5387 40.3557 18.96L43.4917 20.752C42.8757 21.8533 42.0077 22.74 40.8877 23.412C39.7677 24.0653 38.5263 24.392 37.1637 24.392ZM54.7514 10H58.3634V24H54.7514V22.432C53.874 23.7387 52.4834 24.392 50.5794 24.392C49.0487 24.392 47.7794 23.8787 46.7714 22.852C45.782 21.8253 45.2874 20.4067 45.2874 18.596V10H48.8994V18.148C48.8994 19.0813 49.1514 19.8 49.6554 20.304C50.1594 20.7893 50.8314 21.032 51.6714 21.032C52.6047 21.032 53.3514 20.7427 53.9114 20.164C54.4714 19.5853 54.7514 18.7173 54.7514 17.56V10ZM61.6715 24V3.56H65.2835V24H61.6715ZM79.2295 10H82.8415V24H79.2295V22.348C78.1468 23.7107 76.6255 24.392 74.6655 24.392C72.7988 24.392 71.1935 23.6827 69.8495 22.264C68.5242 20.8267 67.8615 19.072 67.8615 17C67.8615 14.928 68.5242 13.1827 69.8495 11.764C71.1935 10.3267 72.7988 9.608 74.6655 9.608C76.6255 9.608 78.1468 10.2893 79.2295 11.652V10ZM72.5655 19.856C73.2935 20.584 74.2175 20.948 75.3375 20.948C76.4575 20.948 77.3815 20.584 78.1095 19.856C78.8562 19.1093 79.2295 18.1573 79.2295 17C79.2295 15.8427 78.8562 14.9 78.1095 14.172C77.3815 13.4253 76.4575 13.052 75.3375 13.052C74.2175 13.052 73.2935 13.4253 72.5655 14.172C71.8375 14.9 71.4735 15.8427 71.4735 17C71.4735 18.1573 71.8375 19.1093 72.5655 19.856ZM89.7288 12.408C90.0648 11.512 90.6155 10.84 91.3808 10.392C92.1648 9.944 93.0328 9.72 93.9848 9.72V13.752C92.8835 13.6213 91.8942 13.8453 91.0168 14.424C90.1582 15.0027 89.7288 15.964 89.7288 17.308V24H86.1168V10H89.7288V12.408ZM104.488 13.472H101.324V19.296C101.324 19.7813 101.445 20.136 101.688 20.36C101.931 20.584 102.285 20.7147 102.752 20.752C103.219 20.7707 103.797 20.7613 104.488 20.724V24C102.005 24.28 100.251 24.0467 99.2241 23.3C98.2161 22.5533 97.7121 21.2187 97.7121 19.296V13.472H95.2761V10H97.7121V7.172L101.324 6.08V10H104.488V13.472Z" fill="white"/>
<circle cx="111.836" cy="21.4375" r="2.625" fill="#EB4226"/>
</svg>
