<svg width="115" height="29" viewBox="0 0 115 29" fill="none" xmlns="http://www.w3.org/2000/svg">
<path d="M5.34728 14.476C5.34728 14.8493 5.58995 15.1573 6.07528 15.4C6.57928 15.624 7.18595 15.8293 7.89528 16.016C8.60462 16.184 9.31395 16.408 10.0233 16.688C10.7326 16.9493 11.3299 17.3973 11.8153 18.032C12.3193 18.6667 12.5713 19.46 12.5713 20.412C12.5713 21.8493 12.0299 22.96 10.9473 23.744C9.88328 24.5093 8.54861 24.892 6.94328 24.892C4.06861 24.892 2.10861 23.7813 1.06328 21.56L4.19928 19.796C4.60995 21.0093 5.52461 21.616 6.94328 21.616C8.23128 21.616 8.87528 21.2147 8.87528 20.412C8.87528 20.0387 8.62328 19.74 8.11928 19.516C7.63395 19.2733 7.03662 19.0587 6.32728 18.872C5.61795 18.6853 4.90861 18.452 4.19928 18.172C3.48995 17.892 2.88328 17.4533 2.37928 16.856C1.89395 16.24 1.65128 15.4747 1.65128 14.56C1.65128 13.1787 2.15528 12.096 3.16328 11.312C4.18995 10.5093 5.45928 10.108 6.97128 10.108C8.10995 10.108 9.14595 10.3693 10.0793 10.892C11.0126 11.396 11.7499 12.124 12.2913 13.076L9.21128 14.756C8.76328 13.804 8.01662 13.328 6.97128 13.328C6.50461 13.328 6.11261 13.4307 5.79528 13.636C5.49661 13.8413 5.34728 14.1213 5.34728 14.476ZM17.7548 18.984C18.2401 20.7387 19.5561 21.616 21.7028 21.616C23.0841 21.616 24.1294 21.1493 24.8388 20.216L27.7508 21.896C26.3694 23.8933 24.3348 24.892 21.6468 24.892C19.3321 24.892 17.4748 24.192 16.0748 22.792C14.6748 21.392 13.9748 19.628 13.9748 17.5C13.9748 15.3907 14.6654 13.636 16.0468 12.236C17.4281 10.8173 19.2014 10.108 21.3668 10.108C23.4201 10.108 25.1094 10.8173 26.4348 12.236C27.7788 13.6547 28.4508 15.4093 28.4508 17.5C28.4508 17.9667 28.4041 18.4613 28.3108 18.984H17.7548ZM17.6988 16.184H24.8388C24.6334 15.232 24.2041 14.5227 23.5508 14.056C22.9161 13.5893 22.1881 13.356 21.3668 13.356C20.3961 13.356 19.5934 13.608 18.9588 14.112C18.3241 14.5973 17.9041 15.288 17.6988 16.184ZM37.5269 24.892C35.4176 24.892 33.6536 24.1827 32.2349 22.764C30.8349 21.3453 30.1349 19.5907 30.1349 17.5C30.1349 15.4093 30.8349 13.6547 32.2349 12.236C33.6536 10.8173 35.4176 10.108 37.5269 10.108C38.8896 10.108 40.1309 10.4347 41.2509 11.088C42.3709 11.7413 43.2203 12.6187 43.7989 13.72L40.6909 15.54C40.4109 14.9613 39.9816 14.504 39.4029 14.168C38.8429 13.832 38.2083 13.664 37.4989 13.664C36.4163 13.664 35.5203 14.028 34.8109 14.756C34.1016 15.4653 33.7469 16.38 33.7469 17.5C33.7469 18.6013 34.1016 19.516 34.8109 20.244C35.5203 20.9533 36.4163 21.308 37.4989 21.308C38.2269 21.308 38.8709 21.1493 39.4309 20.832C40.0096 20.496 40.4389 20.0387 40.7189 19.46L43.8549 21.252C43.2389 22.3533 42.3709 23.24 41.2509 23.912C40.1309 24.5653 38.8896 24.892 37.5269 24.892ZM55.1147 10.5H58.7267V24.5H55.1147V22.932C54.2373 24.2387 52.8467 24.892 50.9427 24.892C49.412 24.892 48.1427 24.3787 47.1347 23.352C46.1453 22.3253 45.6507 20.9067 45.6507 19.096V10.5H49.2627V18.648C49.2627 19.5813 49.5147 20.3 50.0187 20.804C50.5227 21.2893 51.1947 21.532 52.0347 21.532C52.968 21.532 53.7147 21.2427 54.2747 20.664C54.8347 20.0853 55.1147 19.2173 55.1147 18.06V10.5ZM62.0348 24.5V4.06H65.6468V24.5H62.0348ZM79.5928 10.5H83.2048V24.5H79.5928V22.848C78.5101 24.2107 76.9888 24.892 75.0288 24.892C73.1621 24.892 71.5568 24.1827 70.2128 22.764C68.8874 21.3267 68.2248 19.572 68.2248 17.5C68.2248 15.428 68.8874 13.6827 70.2128 12.264C71.5568 10.8267 73.1621 10.108 75.0288 10.108C76.9888 10.108 78.5101 10.7893 79.5928 12.152V10.5ZM72.9288 20.356C73.6568 21.084 74.5808 21.448 75.7008 21.448C76.8208 21.448 77.7448 21.084 78.4728 20.356C79.2194 19.6093 79.5928 18.6573 79.5928 17.5C79.5928 16.3427 79.2194 15.4 78.4728 14.672C77.7448 13.9253 76.8208 13.552 75.7008 13.552C74.5808 13.552 73.6568 13.9253 72.9288 14.672C72.2008 15.4 71.8368 16.3427 71.8368 17.5C71.8368 18.6573 72.2008 19.6093 72.9288 20.356ZM90.0921 12.908C90.4281 12.012 90.9788 11.34 91.7441 10.892C92.5281 10.444 93.3961 10.22 94.3481 10.22V14.252C93.2468 14.1213 92.2575 14.3453 91.3801 14.924C90.5215 15.5027 90.0921 16.464 90.0921 17.808V24.5H86.4801V10.5H90.0921V12.908ZM104.851 13.972H101.687V19.796C101.687 20.2813 101.809 20.636 102.051 20.86C102.294 21.084 102.649 21.2147 103.115 21.252C103.582 21.2707 104.161 21.2613 104.851 21.224V24.5C102.369 24.78 100.614 24.5467 99.5874 23.8C98.5794 23.0533 98.0754 21.7187 98.0754 19.796V13.972H95.6394V10.5H98.0754V7.672L101.687 6.58V10.5H104.851V13.972Z" fill="#262925"/>
<circle cx="112.199" cy="21.9375" r="2.625" fill="#EB4226"/>
</svg>
