<svg width="414" height="245" viewBox="0 0 414 245" fill="none" xmlns="http://www.w3.org/2000/svg">
<line x1="25.5" y1="220" x2="25.5" y2="10" stroke="#F7F7F7"/>
<line x1="122.5" y1="220" x2="122.5" y2="10" stroke="#F7F7F7"/>
<line x1="219.5" y1="220" x2="219.5" y2="10" stroke="#F7F7F7"/>
<line x1="316.5" y1="220" x2="316.5" y2="10" stroke="#F7F7F7"/>
<line x1="413.5" y1="220" x2="413.5" y2="10" stroke="#F7F7F7"/>
<line x1="25" y1="219.5" x2="414" y2="219.5" stroke="#F7F7F7"/>
<line x1="25" y1="149.5" x2="414" y2="149.5" stroke="#F7F7F7"/>
<line x1="25" y1="79.5" x2="414" y2="79.5" stroke="#F7F7F7"/>
<line x1="25" y1="9.5" x2="414" y2="9.5" stroke="#F7F7F7"/>
<path d="M12.5614 220.968C12.0094 221.752 11.2294 222.144 10.2214 222.144C9.21341 222.144 8.42941 221.752 7.86941 220.968C7.31741 220.176 7.04141 219.12 7.04141 217.8C7.04141 216.48 7.31741 215.428 7.86941 214.644C8.42941 213.852 9.21341 213.456 10.2214 213.456C11.2294 213.456 12.0094 213.852 12.5614 214.644C13.1214 215.428 13.4014 216.48 13.4014 217.8C13.4014 219.12 13.1214 220.176 12.5614 220.968ZM8.49341 220.404C8.90941 221.02 9.48541 221.328 10.2214 221.328C10.9574 221.328 11.5294 221.02 11.9374 220.404C12.3534 219.788 12.5614 218.92 12.5614 217.8C12.5614 216.68 12.3534 215.812 11.9374 215.196C11.5294 214.58 10.9574 214.272 10.2214 214.272C9.48541 214.272 8.90941 214.58 8.49341 215.196C8.08541 215.812 7.88141 216.68 7.88141 217.8C7.88141 218.92 8.08541 219.788 8.49341 220.404Z" fill="#1F2226"/>
<path d="M1.75344 152V151.244L4.77744 148.196C5.64144 147.332 6.07344 146.592 6.07344 145.976C6.07344 145.44 5.90544 145.024 5.56944 144.728C5.24144 144.424 4.84544 144.272 4.38144 144.272C3.51744 144.272 2.88944 144.668 2.49744 145.46L1.78944 145.04C2.05344 144.52 2.41344 144.128 2.86944 143.864C3.32544 143.592 3.82944 143.456 4.38144 143.456C5.05344 143.456 5.64144 143.684 6.14544 144.14C6.65744 144.588 6.91344 145.2 6.91344 145.976C6.91344 146.464 6.77744 146.932 6.50544 147.38C6.23344 147.828 5.84944 148.3 5.35344 148.796L2.95344 151.184H7.09344V152H1.75344ZM10.6995 146.984C11.4835 146.984 12.1475 147.216 12.6915 147.68C13.2435 148.136 13.5195 148.764 13.5195 149.564C13.5195 150.364 13.2435 150.996 12.6915 151.46C12.1475 151.916 11.4835 152.144 10.6995 152.144C10.0675 152.144 9.50353 151.992 9.00753 151.688C8.51153 151.376 8.17553 150.932 7.99953 150.356L8.70753 149.948C8.82753 150.396 9.06353 150.74 9.41553 150.98C9.77553 151.212 10.2035 151.328 10.6995 151.328C11.2755 151.328 11.7475 151.176 12.1155 150.872C12.4915 150.56 12.6795 150.124 12.6795 149.564C12.6795 149.004 12.4915 148.572 12.1155 148.268C11.7475 147.956 11.2755 147.8 10.6995 147.8H8.41953L8.71953 143.6H13.2195V144.392H9.46353L9.28353 146.984H10.6995Z" fill="#1F2226"/>
<path d="M3.25813 76.984C4.04213 76.984 4.70613 77.216 5.25013 77.68C5.80213 78.136 6.07812 78.764 6.07812 79.564C6.07812 80.364 5.80213 80.996 5.25013 81.46C4.70613 81.916 4.04213 82.144 3.25813 82.144C2.62613 82.144 2.06213 81.992 1.56613 81.688C1.07013 81.376 0.734125 80.932 0.558125 80.356L1.26613 79.948C1.38613 80.396 1.62213 80.74 1.97413 80.98C2.33413 81.212 2.76213 81.328 3.25813 81.328C3.83413 81.328 4.30613 81.176 4.67413 80.872C5.05013 80.56 5.23813 80.124 5.23813 79.564C5.23813 79.004 5.05013 78.572 4.67413 78.268C4.30613 77.956 3.83413 77.8 3.25813 77.8H0.978125L1.27813 73.6H5.77813V74.392H2.02213L1.84212 76.984H3.25813ZM12.5614 80.968C12.0094 81.752 11.2294 82.144 10.2214 82.144C9.21341 82.144 8.42941 81.752 7.86941 80.968C7.31741 80.176 7.04141 79.12 7.04141 77.8C7.04141 76.48 7.31741 75.428 7.86941 74.644C8.42941 73.852 9.21341 73.456 10.2214 73.456C11.2294 73.456 12.0094 73.852 12.5614 74.644C13.1214 75.428 13.4014 76.48 13.4014 77.8C13.4014 79.12 13.1214 80.176 12.5614 80.968ZM8.49341 80.404C8.90941 81.02 9.48541 81.328 10.2214 81.328C10.9574 81.328 11.5294 81.02 11.9374 80.404C12.3534 79.788 12.5614 78.92 12.5614 77.8C12.5614 76.68 12.3534 75.812 11.9374 75.196C11.5294 74.58 10.9574 74.272 10.2214 74.272C9.48541 74.272 8.90941 74.58 8.49341 75.196C8.08541 75.812 7.88141 76.68 7.88141 77.8C7.88141 78.92 8.08541 79.788 8.49341 80.404Z" fill="#1F2226"/>
<path d="M2.24 1.6H7.4V2.392L4.232 10H3.356L6.524 2.392H2.24V1.6ZM10.6995 4.984C11.4835 4.984 12.1475 5.216 12.6915 5.68C13.2435 6.136 13.5195 6.764 13.5195 7.564C13.5195 8.364 13.2435 8.996 12.6915 9.46C12.1475 9.916 11.4835 10.144 10.6995 10.144C10.0675 10.144 9.50353 9.992 9.00753 9.688C8.51153 9.376 8.17553 8.932 7.99953 8.356L8.70753 7.948C8.82753 8.396 9.06353 8.74 9.41553 8.98C9.77553 9.212 10.2035 9.328 10.6995 9.328C11.2755 9.328 11.7475 9.176 12.1155 8.872C12.4915 8.56 12.6795 8.124 12.6795 7.564C12.6795 7.004 12.4915 6.572 12.1155 6.268C11.7475 5.956 11.2755 5.8 10.6995 5.8H8.41953L8.71953 1.6H13.2195V2.392H9.46353L9.28353 4.984H10.6995Z" fill="#1F2226"/>
<path d="M33.8353 233.6V242H32.9953V234.872L30.0553 239.792H29.9353L26.9953 234.872V242H26.1553V233.6H27.1993L29.9953 238.28L32.7913 233.6H33.8353ZM40.793 236H41.585V242H40.793V240.824C40.241 241.704 39.433 242.144 38.369 242.144C37.513 242.144 36.781 241.84 36.173 241.232C35.573 240.624 35.273 239.88 35.273 239C35.273 238.12 35.573 237.376 36.173 236.768C36.781 236.16 37.513 235.856 38.369 235.856C39.433 235.856 40.241 236.296 40.793 237.176V236ZM36.749 240.692C37.205 241.148 37.765 241.376 38.429 241.376C39.093 241.376 39.653 241.148 40.109 240.692C40.565 240.228 40.793 239.664 40.793 239C40.793 238.336 40.565 237.776 40.109 237.32C39.653 236.856 39.093 236.624 38.429 236.624C37.765 236.624 37.205 236.856 36.749 237.32C36.293 237.776 36.065 238.336 36.065 239C36.065 239.664 36.293 240.228 36.749 240.692ZM44.0539 236.996C44.4219 236.268 45.0539 235.904 45.9499 235.904V236.672C45.4059 236.672 44.9539 236.832 44.5939 237.152C44.2339 237.472 44.0539 237.976 44.0539 238.664V242H43.2619V236H44.0539V236.996ZM49.9153 236.3L50.6353 233.6H51.3553L50.8753 236.3H49.9153ZM52.5581 242V241.244L55.5821 238.196C56.4461 237.332 56.8781 236.592 56.8781 235.976C56.8781 235.44 56.7101 235.024 56.3741 234.728C56.0461 234.424 55.6501 234.272 55.1861 234.272C54.3221 234.272 53.6941 234.668 53.3021 235.46L52.5941 235.04C52.8581 234.52 53.2181 234.128 53.6741 233.864C54.1301 233.592 54.6341 233.456 55.1861 233.456C55.8581 233.456 56.4461 233.684 56.9501 234.14C57.4621 234.588 57.7181 235.2 57.7181 235.976C57.7181 236.464 57.5821 236.932 57.3101 237.38C57.0381 237.828 56.6541 238.3 56.1581 238.796L53.7581 241.184H57.8981V242H52.5581ZM61.5042 236.984C62.2882 236.984 62.9522 237.216 63.4962 237.68C64.0482 238.136 64.3242 238.764 64.3242 239.564C64.3242 240.364 64.0482 240.996 63.4962 241.46C62.9522 241.916 62.2882 242.144 61.5042 242.144C60.8722 242.144 60.3082 241.992 59.8122 241.688C59.3162 241.376 58.9802 240.932 58.8042 240.356L59.5122 239.948C59.6322 240.396 59.8682 240.74 60.2202 240.98C60.5802 241.212 61.0082 241.328 61.5042 241.328C62.0802 241.328 62.5522 241.176 62.9202 240.872C63.2962 240.56 63.4842 240.124 63.4842 239.564C63.4842 239.004 63.2962 238.572 62.9202 238.268C62.5522 237.956 62.0802 237.8 61.5042 237.8H59.2242L59.5242 233.6H64.0242V234.392H60.2682L60.0882 236.984H61.5042Z" fill="#1F2226"/>
<path d="M120.517 242L119.737 239.936H115.753L114.973 242H114.085L117.313 233.6H118.177L121.405 242H120.517ZM116.053 239.144H119.437L117.745 234.644L116.053 239.144ZM125.579 235.856C126.435 235.856 127.163 236.16 127.763 236.768C128.371 237.376 128.675 238.12 128.675 239C128.675 239.88 128.371 240.624 127.763 241.232C127.163 241.84 126.435 242.144 125.579 242.144C124.515 242.144 123.707 241.704 123.155 240.824V244.4H122.363V236H123.155V237.176C123.707 236.296 124.515 235.856 125.579 235.856ZM123.839 240.692C124.295 241.148 124.855 241.376 125.519 241.376C126.183 241.376 126.743 241.148 127.199 240.692C127.655 240.228 127.883 239.664 127.883 239C127.883 238.336 127.655 237.776 127.199 237.32C126.743 236.856 126.183 236.624 125.519 236.624C124.855 236.624 124.295 236.856 123.839 237.32C123.383 237.776 123.155 238.336 123.155 239C123.155 239.664 123.383 240.228 123.839 240.692ZM130.784 236.996C131.152 236.268 131.784 235.904 132.68 235.904V236.672C132.136 236.672 131.684 236.832 131.324 237.152C130.964 237.472 130.784 237.976 130.784 238.664V242H129.992V236H130.784V236.996ZM136.646 236.3L137.366 233.6H138.086L137.606 236.3H136.646ZM139.289 242V241.244L142.313 238.196C143.177 237.332 143.609 236.592 143.609 235.976C143.609 235.44 143.441 235.024 143.105 234.728C142.777 234.424 142.381 234.272 141.917 234.272C141.053 234.272 140.425 234.668 140.033 235.46L139.325 235.04C139.589 234.52 139.949 234.128 140.405 233.864C140.861 233.592 141.365 233.456 141.917 233.456C142.589 233.456 143.177 233.684 143.681 234.14C144.193 234.588 144.449 235.2 144.449 235.976C144.449 236.464 144.313 236.932 144.041 237.38C143.769 237.828 143.385 238.3 142.889 238.796L140.489 241.184H144.629V242H139.289ZM148.235 236.984C149.019 236.984 149.683 237.216 150.227 237.68C150.779 238.136 151.055 238.764 151.055 239.564C151.055 240.364 150.779 240.996 150.227 241.46C149.683 241.916 149.019 242.144 148.235 242.144C147.603 242.144 147.039 241.992 146.543 241.688C146.047 241.376 145.711 240.932 145.535 240.356L146.243 239.948C146.363 240.396 146.599 240.74 146.951 240.98C147.311 241.212 147.739 241.328 148.235 241.328C148.811 241.328 149.283 241.176 149.651 240.872C150.027 240.56 150.215 240.124 150.215 239.564C150.215 239.004 150.027 238.572 149.651 238.268C149.283 237.956 148.811 237.8 148.235 237.8H145.955L146.255 233.6H150.755V234.392H146.999L146.819 236.984H148.235Z" fill="#1F2226"/>
<path d="M209.163 233.6V242H208.323V234.872L205.383 239.792H205.263L202.323 234.872V242H201.483V233.6H202.527L205.323 238.28L208.119 233.6H209.163ZM216.121 236H216.913V242H216.121V240.824C215.569 241.704 214.761 242.144 213.697 242.144C212.841 242.144 212.109 241.84 211.501 241.232C210.901 240.624 210.601 239.88 210.601 239C210.601 238.12 210.901 237.376 211.501 236.768C212.109 236.16 212.841 235.856 213.697 235.856C214.761 235.856 215.569 236.296 216.121 237.176V236ZM212.077 240.692C212.533 241.148 213.093 241.376 213.757 241.376C214.421 241.376 214.981 241.148 215.437 240.692C215.893 240.228 216.121 239.664 216.121 239C216.121 238.336 215.893 237.776 215.437 237.32C214.981 236.856 214.421 236.624 213.757 236.624C213.093 236.624 212.533 236.856 212.077 237.32C211.621 237.776 211.393 238.336 211.393 239C211.393 239.664 211.621 240.228 212.077 240.692ZM222.91 236H223.75L221.182 242.552C220.95 243.144 220.618 243.608 220.186 243.944C219.762 244.288 219.286 244.44 218.758 244.4V243.656C219.478 243.736 220.026 243.32 220.402 242.408L220.558 242.036L217.87 236H218.71L220.966 241.028L222.91 236ZM227.587 236.3L228.307 233.6H229.027L228.547 236.3H227.587ZM230.23 242V241.244L233.254 238.196C234.118 237.332 234.55 236.592 234.55 235.976C234.55 235.44 234.382 235.024 234.046 234.728C233.718 234.424 233.322 234.272 232.858 234.272C231.994 234.272 231.366 234.668 230.974 235.46L230.266 235.04C230.53 234.52 230.89 234.128 231.346 233.864C231.802 233.592 232.306 233.456 232.858 233.456C233.53 233.456 234.118 233.684 234.622 234.14C235.134 234.588 235.39 235.2 235.39 235.976C235.39 236.464 235.254 236.932 234.982 237.38C234.71 237.828 234.326 238.3 233.83 238.796L231.43 241.184H235.57V242H230.23ZM239.176 236.984C239.96 236.984 240.624 237.216 241.168 237.68C241.72 238.136 241.996 238.764 241.996 239.564C241.996 240.364 241.72 240.996 241.168 241.46C240.624 241.916 239.96 242.144 239.176 242.144C238.544 242.144 237.98 241.992 237.484 241.688C236.988 241.376 236.652 240.932 236.476 240.356L237.184 239.948C237.304 240.396 237.54 240.74 237.892 240.98C238.252 241.212 238.68 241.328 239.176 241.328C239.752 241.328 240.224 241.176 240.592 240.872C240.968 240.56 241.156 240.124 241.156 239.564C241.156 239.004 240.968 238.572 240.592 238.268C240.224 237.956 239.752 237.8 239.176 237.8H236.896L237.196 233.6H241.696V234.392H237.94L237.76 236.984H239.176Z" fill="#1F2226"/>
<path d="M294.474 242.144C293.89 242.144 293.366 242.024 292.902 241.784C292.446 241.536 292.118 241.176 291.918 240.704L292.626 240.284C292.89 240.98 293.506 241.328 294.474 241.328C295.058 241.328 295.522 241.188 295.866 240.908C296.218 240.628 296.394 240.2 296.394 239.624V233.6H297.234V239.624C297.234 240.44 296.97 241.064 296.442 241.496C295.922 241.928 295.266 242.144 294.474 242.144ZM303.134 236H303.926V242H303.134V241.064C302.686 241.784 302.014 242.144 301.118 242.144C300.39 242.144 299.814 241.924 299.39 241.484C298.974 241.036 298.766 240.436 298.766 239.684V236H299.558V239.684C299.558 240.22 299.698 240.636 299.978 240.932C300.266 241.228 300.67 241.376 301.19 241.376C301.766 241.376 302.234 241.196 302.594 240.836C302.954 240.468 303.134 239.904 303.134 239.144V236ZM308.41 235.856C309.138 235.856 309.71 236.08 310.126 236.528C310.55 236.968 310.762 237.564 310.762 238.316V242H309.97V238.316C309.97 237.78 309.826 237.364 309.538 237.068C309.258 236.772 308.858 236.624 308.338 236.624C307.762 236.624 307.294 236.808 306.934 237.176C306.574 237.536 306.394 238.096 306.394 238.856V242H305.602V236H306.394V236.936C306.842 236.216 307.514 235.856 308.41 235.856ZM315.173 236.3L315.893 233.6H316.613L316.133 236.3H315.173ZM317.816 242V241.244L320.84 238.196C321.704 237.332 322.136 236.592 322.136 235.976C322.136 235.44 321.968 235.024 321.632 234.728C321.304 234.424 320.908 234.272 320.444 234.272C319.58 234.272 318.952 234.668 318.56 235.46L317.852 235.04C318.116 234.52 318.476 234.128 318.932 233.864C319.388 233.592 319.892 233.456 320.444 233.456C321.116 233.456 321.704 233.684 322.208 234.14C322.72 234.588 322.976 235.2 322.976 235.976C322.976 236.464 322.84 236.932 322.568 237.38C322.296 237.828 321.912 238.3 321.416 238.796L319.016 241.184H323.156V242H317.816ZM326.762 236.984C327.546 236.984 328.21 237.216 328.754 237.68C329.306 238.136 329.582 238.764 329.582 239.564C329.582 240.364 329.306 240.996 328.754 241.46C328.21 241.916 327.546 242.144 326.762 242.144C326.13 242.144 325.566 241.992 325.07 241.688C324.574 241.376 324.238 240.932 324.062 240.356L324.77 239.948C324.89 240.396 325.126 240.74 325.478 240.98C325.838 241.212 326.266 241.328 326.762 241.328C327.338 241.328 327.81 241.176 328.178 240.872C328.554 240.56 328.742 240.124 328.742 239.564C328.742 239.004 328.554 238.572 328.178 238.268C327.81 237.956 327.338 237.8 326.762 237.8H324.482L324.782 233.6H329.282V234.392H325.526L325.346 236.984H326.762Z" fill="#1F2226"/>
<path d="M382.333 242.144C381.749 242.144 381.225 242.024 380.761 241.784C380.305 241.536 379.977 241.176 379.777 240.704L380.485 240.284C380.749 240.98 381.365 241.328 382.333 241.328C382.917 241.328 383.381 241.188 383.725 240.908C384.077 240.628 384.253 240.2 384.253 239.624V233.6H385.093V239.624C385.093 240.44 384.829 241.064 384.301 241.496C383.781 241.928 383.125 242.144 382.333 242.144ZM390.994 236H391.786V242H390.994V241.064C390.546 241.784 389.874 242.144 388.978 242.144C388.25 242.144 387.674 241.924 387.25 241.484C386.834 241.036 386.626 240.436 386.626 239.684V236H387.418V239.684C387.418 240.22 387.558 240.636 387.838 240.932C388.126 241.228 388.53 241.376 389.05 241.376C389.626 241.376 390.094 241.196 390.454 240.836C390.814 240.468 390.994 239.904 390.994 239.144V236ZM393.461 242V233.24H394.253V242H393.461ZM398.814 236.3L399.534 233.6H400.254L399.774 236.3H398.814ZM401.457 242V241.244L404.481 238.196C405.345 237.332 405.777 236.592 405.777 235.976C405.777 235.44 405.609 235.024 405.273 234.728C404.945 234.424 404.549 234.272 404.085 234.272C403.221 234.272 402.593 234.668 402.201 235.46L401.493 235.04C401.757 234.52 402.117 234.128 402.573 233.864C403.029 233.592 403.533 233.456 404.085 233.456C404.757 233.456 405.345 233.684 405.849 234.14C406.361 234.588 406.617 235.2 406.617 235.976C406.617 236.464 406.481 236.932 406.209 237.38C405.937 237.828 405.553 238.3 405.057 238.796L402.657 241.184H406.797V242H401.457ZM410.403 236.984C411.187 236.984 411.851 237.216 412.395 237.68C412.947 238.136 413.223 238.764 413.223 239.564C413.223 240.364 412.947 240.996 412.395 241.46C411.851 241.916 411.187 242.144 410.403 242.144C409.771 242.144 409.207 241.992 408.711 241.688C408.215 241.376 407.879 240.932 407.703 240.356L408.411 239.948C408.531 240.396 408.767 240.74 409.119 240.98C409.479 241.212 409.907 241.328 410.403 241.328C410.979 241.328 411.451 241.176 411.819 240.872C412.195 240.56 412.383 240.124 412.383 239.564C412.383 239.004 412.195 238.572 411.819 238.268C411.451 237.956 410.979 237.8 410.403 237.8H408.123L408.423 233.6H412.923V234.392H409.167L408.987 236.984H410.403Z" fill="#1F2226"/>
<path d="M37 218L88.3594 193.567L174.869 115.087L217.304 103.24L228.05 95.0962L240.434 72.8846L252.09 64H414V218H37Z" fill="url(#paint0_linear_2034_127)"/>
<path d="M36 218L71.4335 202.426C81.4328 198.031 90.6445 192.027 98.7026 184.653L165.72 123.329C171.112 118.396 177.58 114.788 184.61 112.793L209.687 105.676C220.103 102.72 228.712 95.3682 233.263 85.5438V85.5438C239.349 72.4072 252.509 64 266.986 64H414" stroke="#262925" stroke-width="3"/>
<defs>
<linearGradient id="paint0_linear_2034_127" x1="225.5" y1="64" x2="225.5" y2="218" gradientUnits="userSpaceOnUse">
<stop stop-color="#262925" stop-opacity="0.4"/>
<stop offset="1" stop-color="#262925" stop-opacity="0"/>
</linearGradient>
</defs>
</svg>
