<svg width="910" height="245" viewBox="0 0 910 245" fill="none" xmlns="http://www.w3.org/2000/svg">
<line x1="25.5" y1="220" x2="25.5" y2="10" stroke="#F7F7F7"/>
<line x1="136" y1="220" x2="136" y2="10" stroke="#F7F7F7"/>
<line x1="246.5" y1="220" x2="246.5" y2="10" stroke="#F7F7F7"/>
<line x1="357" y1="220" x2="357" y2="10" stroke="#F7F7F7"/>
<line x1="467.5" y1="220" x2="467.5" y2="10" stroke="#F7F7F7"/>
<line x1="578" y1="220" x2="578" y2="10" stroke="#F7F7F7"/>
<line x1="688.5" y1="220" x2="688.5" y2="10" stroke="#F7F7F7"/>
<line x1="799" y1="220" x2="799" y2="10" stroke="#F7F7F7"/>
<line x1="909.5" y1="220" x2="909.5" y2="10" stroke="#F7F7F7"/>
<line x1="25" y1="219.5" x2="910" y2="219.5" stroke="#F7F7F7"/>
<line x1="25" y1="149.5" x2="910" y2="149.5" stroke="#F7F7F7"/>
<line x1="25" y1="79.5" x2="910" y2="79.5" stroke="#F7F7F7"/>
<line x1="25" y1="9.5" x2="910" y2="9.5" stroke="#F7F7F7"/>
<path d="M12.5614 220.968C12.0094 221.752 11.2294 222.144 10.2214 222.144C9.21341 222.144 8.42941 221.752 7.86941 220.968C7.31741 220.176 7.04141 219.12 7.04141 217.8C7.04141 216.48 7.31741 215.428 7.86941 214.644C8.42941 213.852 9.21341 213.456 10.2214 213.456C11.2294 213.456 12.0094 213.852 12.5614 214.644C13.1214 215.428 13.4014 216.48 13.4014 217.8C13.4014 219.12 13.1214 220.176 12.5614 220.968ZM8.49341 220.404C8.90941 221.02 9.48541 221.328 10.2214 221.328C10.9574 221.328 11.5294 221.02 11.9374 220.404C12.3534 219.788 12.5614 218.92 12.5614 217.8C12.5614 216.68 12.3534 215.812 11.9374 215.196C11.5294 214.58 10.9574 214.272 10.2214 214.272C9.48541 214.272 8.90941 214.58 8.49341 215.196C8.08541 215.812 7.88141 216.68 7.88141 217.8C7.88141 218.92 8.08541 219.788 8.49341 220.404Z" fill="#1F2226"/>
<path d="M1.75344 152V151.244L4.77744 148.196C5.64144 147.332 6.07344 146.592 6.07344 145.976C6.07344 145.44 5.90544 145.024 5.56944 144.728C5.24144 144.424 4.84544 144.272 4.38144 144.272C3.51744 144.272 2.88944 144.668 2.49744 145.46L1.78944 145.04C2.05344 144.52 2.41344 144.128 2.86944 143.864C3.32544 143.592 3.82944 143.456 4.38144 143.456C5.05344 143.456 5.64144 143.684 6.14544 144.14C6.65744 144.588 6.91344 145.2 6.91344 145.976C6.91344 146.464 6.77744 146.932 6.50544 147.38C6.23344 147.828 5.84944 148.3 5.35344 148.796L2.95344 151.184H7.09344V152H1.75344ZM10.6995 146.984C11.4835 146.984 12.1475 147.216 12.6915 147.68C13.2435 148.136 13.5195 148.764 13.5195 149.564C13.5195 150.364 13.2435 150.996 12.6915 151.46C12.1475 151.916 11.4835 152.144 10.6995 152.144C10.0675 152.144 9.50353 151.992 9.00753 151.688C8.51153 151.376 8.17553 150.932 7.99953 150.356L8.70753 149.948C8.82753 150.396 9.06353 150.74 9.41553 150.98C9.77553 151.212 10.2035 151.328 10.6995 151.328C11.2755 151.328 11.7475 151.176 12.1155 150.872C12.4915 150.56 12.6795 150.124 12.6795 149.564C12.6795 149.004 12.4915 148.572 12.1155 148.268C11.7475 147.956 11.2755 147.8 10.6995 147.8H8.41953L8.71953 143.6H13.2195V144.392H9.46353L9.28353 146.984H10.6995Z" fill="#1F2226"/>
<path d="M3.25813 76.984C4.04213 76.984 4.70613 77.216 5.25013 77.68C5.80213 78.136 6.07812 78.764 6.07812 79.564C6.07812 80.364 5.80213 80.996 5.25013 81.46C4.70613 81.916 4.04213 82.144 3.25813 82.144C2.62613 82.144 2.06213 81.992 1.56613 81.688C1.07013 81.376 0.734125 80.932 0.558125 80.356L1.26613 79.948C1.38613 80.396 1.62213 80.74 1.97413 80.98C2.33413 81.212 2.76213 81.328 3.25813 81.328C3.83413 81.328 4.30613 81.176 4.67413 80.872C5.05013 80.56 5.23813 80.124 5.23813 79.564C5.23813 79.004 5.05013 78.572 4.67413 78.268C4.30613 77.956 3.83413 77.8 3.25813 77.8H0.978125L1.27813 73.6H5.77813V74.392H2.02213L1.84212 76.984H3.25813ZM12.5614 80.968C12.0094 81.752 11.2294 82.144 10.2214 82.144C9.21341 82.144 8.42941 81.752 7.86941 80.968C7.31741 80.176 7.04141 79.12 7.04141 77.8C7.04141 76.48 7.31741 75.428 7.86941 74.644C8.42941 73.852 9.21341 73.456 10.2214 73.456C11.2294 73.456 12.0094 73.852 12.5614 74.644C13.1214 75.428 13.4014 76.48 13.4014 77.8C13.4014 79.12 13.1214 80.176 12.5614 80.968ZM8.49341 80.404C8.90941 81.02 9.48541 81.328 10.2214 81.328C10.9574 81.328 11.5294 81.02 11.9374 80.404C12.3534 79.788 12.5614 78.92 12.5614 77.8C12.5614 76.68 12.3534 75.812 11.9374 75.196C11.5294 74.58 10.9574 74.272 10.2214 74.272C9.48541 74.272 8.90941 74.58 8.49341 75.196C8.08541 75.812 7.88141 76.68 7.88141 77.8C7.88141 78.92 8.08541 79.788 8.49341 80.404Z" fill="#1F2226"/>
<path d="M2.24 1.6H7.4V2.392L4.232 10H3.356L6.524 2.392H2.24V1.6ZM10.6995 4.984C11.4835 4.984 12.1475 5.216 12.6915 5.68C13.2435 6.136 13.5195 6.764 13.5195 7.564C13.5195 8.364 13.2435 8.996 12.6915 9.46C12.1475 9.916 11.4835 10.144 10.6995 10.144C10.0675 10.144 9.50353 9.992 9.00753 9.688C8.51153 9.376 8.17553 8.932 7.99953 8.356L8.70753 7.948C8.82753 8.396 9.06353 8.74 9.41553 8.98C9.77553 9.212 10.2035 9.328 10.6995 9.328C11.2755 9.328 11.7475 9.176 12.1155 8.872C12.4915 8.56 12.6795 8.124 12.6795 7.564C12.6795 7.004 12.4915 6.572 12.1155 6.268C11.7475 5.956 11.2755 5.8 10.6995 5.8H8.41953L8.71953 1.6H13.2195V2.392H9.46353L9.28353 4.984H10.6995Z" fill="#1F2226"/>
<path d="M57.6848 242L56.9048 239.936H52.9208L52.1408 242H51.2528L54.4808 233.6H55.3448L58.5728 242H57.6848ZM53.2208 239.144H56.6048L54.9128 234.644L53.2208 239.144ZM63.6968 236H64.4888V242H63.6968V241.064C63.2488 241.784 62.5768 242.144 61.6808 242.144C60.9528 242.144 60.3768 241.924 59.9528 241.484C59.5368 241.036 59.3288 240.436 59.3288 239.684V236H60.1208V239.684C60.1208 240.22 60.2608 240.636 60.5408 240.932C60.8288 241.228 61.2328 241.376 61.7528 241.376C62.3288 241.376 62.7968 241.196 63.1568 240.836C63.5168 240.468 63.6968 239.904 63.6968 239.144V236ZM71.3242 236H72.1162V241.76C72.1162 242.624 71.8202 243.304 71.2282 243.8C70.6362 244.296 69.9282 244.544 69.1042 244.544C67.6962 244.544 66.7482 244.056 66.2602 243.08L66.9562 242.684C67.3162 243.412 68.0322 243.776 69.1042 243.776C69.7922 243.776 70.3322 243.592 70.7242 243.224C71.1242 242.864 71.3242 242.376 71.3242 241.76V240.824C70.7722 241.704 69.9642 242.144 68.9002 242.144C68.0442 242.144 67.3122 241.84 66.7042 241.232C66.1042 240.624 65.8042 239.88 65.8042 239C65.8042 238.12 66.1042 237.376 66.7042 236.768C67.3122 236.16 68.0442 235.856 68.9002 235.856C69.9642 235.856 70.7722 236.296 71.3242 237.176V236ZM67.2802 240.692C67.7362 241.148 68.2962 241.376 68.9602 241.376C69.6242 241.376 70.1842 241.148 70.6402 240.692C71.0962 240.228 71.3242 239.664 71.3242 239C71.3242 238.336 71.0962 237.776 70.6402 237.32C70.1842 236.856 69.6242 236.624 68.9602 236.624C68.2962 236.624 67.7362 236.856 67.2802 237.32C66.8242 237.776 66.5962 238.336 66.5962 239C66.5962 239.664 66.8242 240.228 67.2802 240.692ZM76.6731 236.3L77.3931 233.6H78.1131L77.6331 236.3H76.6731ZM79.3159 242V241.244L82.3399 238.196C83.2039 237.332 83.6359 236.592 83.6359 235.976C83.6359 235.44 83.4679 235.024 83.1319 234.728C82.8039 234.424 82.4079 234.272 81.9439 234.272C81.0799 234.272 80.4519 234.668 80.0599 235.46L79.3519 235.04C79.6159 234.52 79.9759 234.128 80.4319 233.864C80.8879 233.592 81.3919 233.456 81.9439 233.456C82.6159 233.456 83.2039 233.684 83.7079 234.14C84.2199 234.588 84.4759 235.2 84.4759 235.976C84.4759 236.464 84.3399 236.932 84.0679 237.38C83.7959 237.828 83.4119 238.3 82.9159 238.796L80.5159 241.184H84.6559V242H79.3159ZM91.5663 239.528V240.32H90.4863V242H89.6463V240.32H85.2063V239.528L88.3263 233.6H89.2503L86.1303 239.528H89.6463V236.96H90.4863V239.528H91.5663Z" fill="#1F2226"/>
<path d="M127.809 242.144C127.041 242.144 126.381 241.964 125.829 241.604C125.285 241.236 124.905 240.732 124.689 240.092L125.409 239.672C125.561 240.192 125.841 240.6 126.249 240.896C126.657 241.184 127.181 241.328 127.821 241.328C128.445 241.328 128.929 241.192 129.273 240.92C129.625 240.64 129.801 240.272 129.801 239.816C129.801 239.376 129.641 239.044 129.321 238.82C129.001 238.596 128.473 238.364 127.737 238.124C126.865 237.836 126.289 237.604 126.009 237.428C125.369 237.044 125.049 236.488 125.049 235.76C125.049 235.048 125.297 234.488 125.793 234.08C126.289 233.664 126.901 233.456 127.629 233.456C128.285 233.456 128.853 233.628 129.333 233.972C129.813 234.308 130.169 234.74 130.401 235.268L129.693 235.664C129.309 234.736 128.621 234.272 127.629 234.272C127.109 234.272 126.689 234.4 126.369 234.656C126.049 234.912 125.889 235.268 125.889 235.724C125.889 236.14 126.033 236.452 126.321 236.66C126.609 236.868 127.085 237.08 127.749 237.296C128.053 237.4 128.269 237.476 128.397 237.524C128.533 237.564 128.725 237.636 128.973 237.74C129.229 237.836 129.417 237.924 129.537 238.004C129.657 238.076 129.801 238.18 129.969 238.316C130.145 238.444 130.269 238.576 130.341 238.712C130.421 238.84 130.489 239 130.545 239.192C130.609 239.376 130.641 239.576 130.641 239.792C130.641 240.504 130.381 241.076 129.861 241.508C129.341 241.932 128.657 242.144 127.809 242.144ZM134.852 235.856C135.74 235.856 136.456 236.172 137 236.804C137.552 237.428 137.828 238.168 137.828 239.024C137.828 239.112 137.82 239.236 137.804 239.396H132.536C132.616 240.004 132.872 240.488 133.304 240.848C133.744 241.2 134.284 241.376 134.924 241.376C135.38 241.376 135.772 241.284 136.1 241.1C136.436 240.908 136.688 240.66 136.856 240.356L137.552 240.764C137.288 241.188 136.928 241.524 136.472 241.772C136.016 242.02 135.496 242.144 134.912 242.144C133.968 242.144 133.2 241.848 132.608 241.256C132.016 240.664 131.72 239.912 131.72 239C131.72 238.104 132.012 237.356 132.596 236.756C133.18 236.156 133.932 235.856 134.852 235.856ZM134.852 236.624C134.228 236.624 133.704 236.812 133.28 237.188C132.864 237.556 132.616 238.036 132.536 238.628H137.012C136.932 237.996 136.688 237.504 136.28 237.152C135.872 236.8 135.396 236.624 134.852 236.624ZM142.304 235.856C143.16 235.856 143.888 236.16 144.488 236.768C145.096 237.376 145.4 238.12 145.4 239C145.4 239.88 145.096 240.624 144.488 241.232C143.888 241.84 143.16 242.144 142.304 242.144C141.24 242.144 140.432 241.704 139.88 240.824V244.4H139.088V236H139.88V237.176C140.432 236.296 141.24 235.856 142.304 235.856ZM140.564 240.692C141.02 241.148 141.58 241.376 142.244 241.376C142.908 241.376 143.468 241.148 143.924 240.692C144.38 240.228 144.608 239.664 144.608 239C144.608 238.336 144.38 237.776 143.924 237.32C143.468 236.856 142.908 236.624 142.244 236.624C141.58 236.624 141.02 236.856 140.564 237.32C140.108 237.776 139.88 238.336 139.88 239C139.88 239.664 140.108 240.228 140.564 240.692ZM149.597 236.3L150.317 233.6H151.037L150.557 236.3H149.597ZM152.24 242V241.244L155.264 238.196C156.128 237.332 156.56 236.592 156.56 235.976C156.56 235.44 156.392 235.024 156.056 234.728C155.728 234.424 155.332 234.272 154.868 234.272C154.004 234.272 153.376 234.668 152.984 235.46L152.276 235.04C152.54 234.52 152.9 234.128 153.356 233.864C153.812 233.592 154.316 233.456 154.868 233.456C155.54 233.456 156.128 233.684 156.632 234.14C157.144 234.588 157.4 235.2 157.4 235.976C157.4 236.464 157.264 236.932 156.992 237.38C156.72 237.828 156.336 238.3 155.84 238.796L153.44 241.184H157.58V242H152.24ZM164.49 239.528V240.32H163.41V242H162.57V240.32H158.13V239.528L161.25 233.6H162.174L159.054 239.528H162.57V236.96H163.41V239.528H164.49Z" fill="#1F2226"/>
<path d="M206.068 240.884C205.228 241.724 204.2 242.144 202.984 242.144C201.768 242.144 200.74 241.724 199.9 240.884C199.06 240.036 198.64 239.008 198.64 237.8C198.64 236.592 199.06 235.568 199.9 234.728C200.74 233.88 201.768 233.456 202.984 233.456C204.2 233.456 205.228 233.88 206.068 234.728C206.908 235.568 207.328 236.592 207.328 237.8C207.328 239.008 206.908 240.036 206.068 240.884ZM200.488 240.308C201.16 240.988 201.992 241.328 202.984 241.328C203.976 241.328 204.808 240.988 205.48 240.308C206.152 239.62 206.488 238.784 206.488 237.8C206.488 236.816 206.152 235.984 205.48 235.304C204.808 234.616 203.976 234.272 202.984 234.272C201.992 234.272 201.16 234.616 200.488 235.304C199.816 235.984 199.48 236.816 199.48 237.8C199.48 238.784 199.816 239.62 200.488 240.308ZM211.441 242.144C210.537 242.144 209.785 241.844 209.185 241.244C208.585 240.636 208.285 239.888 208.285 239C208.285 238.112 208.585 237.368 209.185 236.768C209.785 236.16 210.537 235.856 211.441 235.856C212.033 235.856 212.565 236 213.037 236.288C213.509 236.568 213.853 236.948 214.069 237.428L213.421 237.8C213.261 237.44 213.001 237.156 212.641 236.948C212.289 236.732 211.889 236.624 211.441 236.624C210.777 236.624 210.217 236.856 209.761 237.32C209.305 237.776 209.077 238.336 209.077 239C209.077 239.664 209.305 240.228 209.761 240.692C210.217 241.148 210.777 241.376 211.441 241.376C211.889 241.376 212.289 241.272 212.641 241.064C212.993 240.848 213.269 240.56 213.469 240.2L214.129 240.584C213.881 241.064 213.517 241.444 213.037 241.724C212.557 242.004 212.025 242.144 211.441 242.144ZM218.446 236.768H216.718V240.404C216.718 240.732 216.782 240.968 216.91 241.112C217.038 241.248 217.23 241.32 217.486 241.328C217.742 241.328 218.062 241.32 218.446 241.304V242C217.606 242.128 216.974 242.068 216.55 241.82C216.134 241.572 215.926 241.1 215.926 240.404V236.768H214.666V236H215.926V234.56L216.718 234.32V236H218.446V236.768ZM222.646 236.3L223.366 233.6H224.086L223.606 236.3H222.646ZM225.289 242V241.244L228.313 238.196C229.177 237.332 229.609 236.592 229.609 235.976C229.609 235.44 229.441 235.024 229.105 234.728C228.777 234.424 228.381 234.272 227.917 234.272C227.053 234.272 226.425 234.668 226.033 235.46L225.325 235.04C225.589 234.52 225.949 234.128 226.405 233.864C226.861 233.592 227.365 233.456 227.917 233.456C228.589 233.456 229.177 233.684 229.681 234.14C230.193 234.588 230.449 235.2 230.449 235.976C230.449 236.464 230.313 236.932 230.041 237.38C229.769 237.828 229.385 238.3 228.889 238.796L226.489 241.184H230.629V242H225.289ZM237.539 239.528V240.32H236.459V242H235.619V240.32H231.179V239.528L234.299 233.6H235.223L232.103 239.528H235.619V236.96H236.459V239.528H237.539Z" fill="#1F2226"/>
<path d="M278.745 233.6H279.585V242H278.865L274.185 235.16V242H273.345V233.6H274.065L278.745 240.44V233.6ZM286.409 241.244C285.801 241.844 285.057 242.144 284.177 242.144C283.297 242.144 282.549 241.844 281.933 241.244C281.325 240.636 281.021 239.888 281.021 239C281.021 238.112 281.325 237.368 281.933 236.768C282.549 236.16 283.297 235.856 284.177 235.856C285.057 235.856 285.801 236.16 286.409 236.768C287.025 237.368 287.333 238.112 287.333 239C287.333 239.888 287.025 240.636 286.409 241.244ZM282.497 240.692C282.953 241.148 283.513 241.376 284.177 241.376C284.841 241.376 285.401 241.148 285.857 240.692C286.313 240.228 286.541 239.664 286.541 239C286.541 238.336 286.313 237.776 285.857 237.32C285.401 236.856 284.841 236.624 284.177 236.624C283.513 236.624 282.953 236.856 282.497 237.32C282.041 237.776 281.813 238.336 281.813 239C281.813 239.664 282.041 240.228 282.497 240.692ZM292.744 236H293.584L291.124 242H290.164L287.704 236H288.544L290.644 241.172L292.744 236ZM297.421 236.3L298.141 233.6H298.861L298.381 236.3H297.421ZM300.064 242V241.244L303.088 238.196C303.952 237.332 304.384 236.592 304.384 235.976C304.384 235.44 304.216 235.024 303.88 234.728C303.552 234.424 303.156 234.272 302.692 234.272C301.828 234.272 301.2 234.668 300.808 235.46L300.1 235.04C300.364 234.52 300.724 234.128 301.18 233.864C301.636 233.592 302.14 233.456 302.692 233.456C303.364 233.456 303.952 233.684 304.456 234.14C304.968 234.588 305.224 235.2 305.224 235.976C305.224 236.464 305.088 236.932 304.816 237.38C304.544 237.828 304.16 238.3 303.664 238.796L301.264 241.184H305.404V242H300.064ZM312.314 239.528V240.32H311.234V242H310.394V240.32H305.954V239.528L309.074 233.6H309.998L306.878 239.528H310.394V236.96H311.234V239.528H312.314Z" fill="#1F2226"/>
<path d="M349.61 233.6C350.754 233.6 351.698 234.008 352.442 234.824C353.194 235.632 353.57 236.624 353.57 237.8C353.57 238.976 353.194 239.972 352.442 240.788C351.698 241.596 350.754 242 349.61 242H346.37V233.6H349.61ZM349.61 241.208C350.53 241.208 351.282 240.88 351.866 240.224C352.458 239.568 352.754 238.76 352.754 237.8C352.754 236.84 352.458 236.032 351.866 235.376C351.282 234.72 350.53 234.392 349.61 234.392H347.21V241.208H349.61ZM357.659 235.856C358.547 235.856 359.263 236.172 359.807 236.804C360.359 237.428 360.635 238.168 360.635 239.024C360.635 239.112 360.627 239.236 360.611 239.396H355.343C355.423 240.004 355.679 240.488 356.111 240.848C356.551 241.2 357.091 241.376 357.731 241.376C358.187 241.376 358.579 241.284 358.907 241.1C359.243 240.908 359.495 240.66 359.663 240.356L360.359 240.764C360.095 241.188 359.735 241.524 359.279 241.772C358.823 242.02 358.303 242.144 357.719 242.144C356.775 242.144 356.007 241.848 355.415 241.256C354.823 240.664 354.527 239.912 354.527 239C354.527 238.104 354.819 237.356 355.403 236.756C355.987 236.156 356.739 235.856 357.659 235.856ZM357.659 236.624C357.035 236.624 356.511 236.812 356.087 237.188C355.671 237.556 355.423 238.036 355.343 238.628H359.819C359.739 237.996 359.495 237.504 359.087 237.152C358.679 236.8 358.203 236.624 357.659 236.624ZM364.691 242.144C363.787 242.144 363.035 241.844 362.435 241.244C361.835 240.636 361.535 239.888 361.535 239C361.535 238.112 361.835 237.368 362.435 236.768C363.035 236.16 363.787 235.856 364.691 235.856C365.283 235.856 365.815 236 366.287 236.288C366.759 236.568 367.103 236.948 367.319 237.428L366.671 237.8C366.511 237.44 366.251 237.156 365.891 236.948C365.539 236.732 365.139 236.624 364.691 236.624C364.027 236.624 363.467 236.856 363.011 237.32C362.555 237.776 362.327 238.336 362.327 239C362.327 239.664 362.555 240.228 363.011 240.692C363.467 241.148 364.027 241.376 364.691 241.376C365.139 241.376 365.539 241.272 365.891 241.064C366.243 240.848 366.519 240.56 366.719 240.2L367.379 240.584C367.131 241.064 366.767 241.444 366.287 241.724C365.807 242.004 365.275 242.144 364.691 242.144ZM371.396 236.3L372.116 233.6H372.836L372.356 236.3H371.396ZM374.039 242V241.244L377.063 238.196C377.927 237.332 378.359 236.592 378.359 235.976C378.359 235.44 378.191 235.024 377.855 234.728C377.527 234.424 377.131 234.272 376.667 234.272C375.803 234.272 375.175 234.668 374.783 235.46L374.075 235.04C374.339 234.52 374.699 234.128 375.155 233.864C375.611 233.592 376.115 233.456 376.667 233.456C377.339 233.456 377.927 233.684 378.431 234.14C378.943 234.588 379.199 235.2 379.199 235.976C379.199 236.464 379.063 236.932 378.791 237.38C378.519 237.828 378.135 238.3 377.639 238.796L375.239 241.184H379.379V242H374.039ZM386.289 239.528V240.32H385.209V242H384.369V240.32H379.929V239.528L383.049 233.6H383.973L380.853 239.528H384.369V236.96H385.209V239.528H386.289Z" fill="#1F2226"/>
<path d="M422.284 242.144C421.7 242.144 421.176 242.024 420.712 241.784C420.256 241.536 419.928 241.176 419.728 240.704L420.436 240.284C420.7 240.98 421.316 241.328 422.284 241.328C422.868 241.328 423.332 241.188 423.676 240.908C424.028 240.628 424.204 240.2 424.204 239.624V233.6H425.044V239.624C425.044 240.44 424.78 241.064 424.252 241.496C423.732 241.928 423.076 242.144 422.284 242.144ZM431.822 236H432.614V242H431.822V240.824C431.27 241.704 430.462 242.144 429.398 242.144C428.542 242.144 427.81 241.84 427.202 241.232C426.602 240.624 426.302 239.88 426.302 239C426.302 238.12 426.602 237.376 427.202 236.768C427.81 236.16 428.542 235.856 429.398 235.856C430.462 235.856 431.27 236.296 431.822 237.176V236ZM427.778 240.692C428.234 241.148 428.794 241.376 429.458 241.376C430.122 241.376 430.682 241.148 431.138 240.692C431.594 240.228 431.822 239.664 431.822 239C431.822 238.336 431.594 237.776 431.138 237.32C430.682 236.856 430.122 236.624 429.458 236.624C428.794 236.624 428.234 236.856 427.778 237.32C427.322 237.776 427.094 238.336 427.094 239C427.094 239.664 427.322 240.228 427.778 240.692ZM437.099 235.856C437.827 235.856 438.399 236.08 438.815 236.528C439.239 236.968 439.451 237.564 439.451 238.316V242H438.659V238.316C438.659 237.78 438.515 237.364 438.227 237.068C437.947 236.772 437.547 236.624 437.027 236.624C436.451 236.624 435.983 236.808 435.623 237.176C435.263 237.536 435.083 238.096 435.083 238.856V242H434.291V236H435.083V236.936C435.531 236.216 436.203 235.856 437.099 235.856ZM443.863 236.3L444.583 233.6H445.303L444.823 236.3H443.863ZM446.505 242V241.244L449.529 238.196C450.393 237.332 450.825 236.592 450.825 235.976C450.825 235.44 450.657 235.024 450.321 234.728C449.993 234.424 449.597 234.272 449.133 234.272C448.269 234.272 447.641 234.668 447.249 235.46L446.541 235.04C446.805 234.52 447.165 234.128 447.621 233.864C448.077 233.592 448.581 233.456 449.133 233.456C449.805 233.456 450.393 233.684 450.897 234.14C451.409 234.588 451.665 235.2 451.665 235.976C451.665 236.464 451.529 236.932 451.257 237.38C450.985 237.828 450.601 238.3 450.105 238.796L447.705 241.184H451.845V242H446.505ZM455.451 236.984C456.235 236.984 456.899 237.216 457.443 237.68C457.995 238.136 458.271 238.764 458.271 239.564C458.271 240.364 457.995 240.996 457.443 241.46C456.899 241.916 456.235 242.144 455.451 242.144C454.819 242.144 454.255 241.992 453.759 241.688C453.263 241.376 452.927 240.932 452.751 240.356L453.459 239.948C453.579 240.396 453.815 240.74 454.167 240.98C454.527 241.212 454.955 241.328 455.451 241.328C456.027 241.328 456.499 241.176 456.867 240.872C457.243 240.56 457.431 240.124 457.431 239.564C457.431 239.004 457.243 238.572 456.867 238.268C456.499 237.956 456.027 237.8 455.451 237.8H453.171L453.471 233.6H457.971V234.392H454.215L454.035 236.984H455.451Z" fill="#1F2226"/>
<path d="M497.989 234.392H494.089V237.488H497.809V238.28H494.089V242H493.249V233.6H497.989V234.392ZM502.077 235.856C502.965 235.856 503.681 236.172 504.225 236.804C504.777 237.428 505.053 238.168 505.053 239.024C505.053 239.112 505.045 239.236 505.029 239.396H499.761C499.841 240.004 500.097 240.488 500.529 240.848C500.969 241.2 501.509 241.376 502.149 241.376C502.605 241.376 502.997 241.284 503.325 241.1C503.661 240.908 503.913 240.66 504.081 240.356L504.777 240.764C504.513 241.188 504.153 241.524 503.697 241.772C503.241 242.02 502.721 242.144 502.137 242.144C501.193 242.144 500.425 241.848 499.833 241.256C499.241 240.664 498.945 239.912 498.945 239C498.945 238.104 499.237 237.356 499.821 236.756C500.405 236.156 501.157 235.856 502.077 235.856ZM502.077 236.624C501.453 236.624 500.929 236.812 500.505 237.188C500.089 237.556 499.841 238.036 499.761 238.628H504.237C504.157 237.996 503.913 237.504 503.505 237.152C503.097 236.8 502.621 236.624 502.077 236.624ZM509.529 235.856C510.385 235.856 511.113 236.16 511.713 236.768C512.321 237.376 512.625 238.12 512.625 239C512.625 239.88 512.321 240.624 511.713 241.232C511.113 241.84 510.385 242.144 509.529 242.144C508.465 242.144 507.657 241.704 507.105 240.824V242H506.313V233.6H507.105V237.176C507.657 236.296 508.465 235.856 509.529 235.856ZM507.789 240.692C508.245 241.148 508.805 241.376 509.469 241.376C510.133 241.376 510.693 241.148 511.149 240.692C511.605 240.228 511.833 239.664 511.833 239C511.833 238.336 511.605 237.776 511.149 237.32C510.693 236.856 510.133 236.624 509.469 236.624C508.805 236.624 508.245 236.856 507.789 237.32C507.333 237.776 507.105 238.336 507.105 239C507.105 239.664 507.333 240.228 507.789 240.692ZM516.822 236.3L517.542 233.6H518.262L517.782 236.3H516.822ZM519.464 242V241.244L522.488 238.196C523.352 237.332 523.784 236.592 523.784 235.976C523.784 235.44 523.616 235.024 523.28 234.728C522.952 234.424 522.556 234.272 522.092 234.272C521.228 234.272 520.6 234.668 520.208 235.46L519.5 235.04C519.764 234.52 520.124 234.128 520.58 233.864C521.036 233.592 521.54 233.456 522.092 233.456C522.764 233.456 523.352 233.684 523.856 234.14C524.368 234.588 524.624 235.2 524.624 235.976C524.624 236.464 524.488 236.932 524.216 237.38C523.944 237.828 523.56 238.3 523.064 238.796L520.664 241.184H524.804V242H519.464ZM528.41 236.984C529.194 236.984 529.858 237.216 530.402 237.68C530.954 238.136 531.23 238.764 531.23 239.564C531.23 240.364 530.954 240.996 530.402 241.46C529.858 241.916 529.194 242.144 528.41 242.144C527.778 242.144 527.214 241.992 526.718 241.688C526.222 241.376 525.886 240.932 525.71 240.356L526.418 239.948C526.538 240.396 526.774 240.74 527.126 240.98C527.486 241.212 527.914 241.328 528.41 241.328C528.986 241.328 529.458 241.176 529.826 240.872C530.202 240.56 530.39 240.124 530.39 239.564C530.39 239.004 530.202 238.572 529.826 238.268C529.458 237.956 528.986 237.8 528.41 237.8H526.13L526.43 233.6H530.93V234.392H527.174L526.994 236.984H528.41Z" fill="#1F2226"/>
<path d="M573.835 233.6V242H572.995V234.872L570.055 239.792H569.935L566.995 234.872V242H566.155V233.6H567.199L569.995 238.28L572.791 233.6H573.835ZM580.793 236H581.585V242H580.793V240.824C580.241 241.704 579.433 242.144 578.369 242.144C577.513 242.144 576.781 241.84 576.173 241.232C575.573 240.624 575.273 239.88 575.273 239C575.273 238.12 575.573 237.376 576.173 236.768C576.781 236.16 577.513 235.856 578.369 235.856C579.433 235.856 580.241 236.296 580.793 237.176V236ZM576.749 240.692C577.205 241.148 577.765 241.376 578.429 241.376C579.093 241.376 579.653 241.148 580.109 240.692C580.565 240.228 580.793 239.664 580.793 239C580.793 238.336 580.565 237.776 580.109 237.32C579.653 236.856 579.093 236.624 578.429 236.624C577.765 236.624 577.205 236.856 576.749 237.32C576.293 237.776 576.065 238.336 576.065 239C576.065 239.664 576.293 240.228 576.749 240.692ZM584.054 236.996C584.422 236.268 585.054 235.904 585.95 235.904V236.672C585.406 236.672 584.954 236.832 584.594 237.152C584.234 237.472 584.054 237.976 584.054 238.664V242H583.262V236H584.054V236.996ZM589.915 236.3L590.635 233.6H591.355L590.875 236.3H589.915ZM592.558 242V241.244L595.582 238.196C596.446 237.332 596.878 236.592 596.878 235.976C596.878 235.44 596.71 235.024 596.374 234.728C596.046 234.424 595.65 234.272 595.186 234.272C594.322 234.272 593.694 234.668 593.302 235.46L592.594 235.04C592.858 234.52 593.218 234.128 593.674 233.864C594.13 233.592 594.634 233.456 595.186 233.456C595.858 233.456 596.446 233.684 596.95 234.14C597.462 234.588 597.718 235.2 597.718 235.976C597.718 236.464 597.582 236.932 597.31 237.38C597.038 237.828 596.654 238.3 596.158 238.796L593.758 241.184H597.898V242H592.558ZM601.504 236.984C602.288 236.984 602.952 237.216 603.496 237.68C604.048 238.136 604.324 238.764 604.324 239.564C604.324 240.364 604.048 240.996 603.496 241.46C602.952 241.916 602.288 242.144 601.504 242.144C600.872 242.144 600.308 241.992 599.812 241.688C599.316 241.376 598.98 240.932 598.804 240.356L599.512 239.948C599.632 240.396 599.868 240.74 600.22 240.98C600.58 241.212 601.008 241.328 601.504 241.328C602.08 241.328 602.552 241.176 602.92 240.872C603.296 240.56 603.484 240.124 603.484 239.564C603.484 239.004 603.296 238.572 602.92 238.268C602.552 237.956 602.08 237.8 601.504 237.8H599.224L599.524 233.6H604.024V234.392H600.268L600.088 236.984H601.504Z" fill="#1F2226"/>
<path d="M645.767 242L644.987 239.936H641.003L640.223 242H639.335L642.563 233.6H643.427L646.655 242H645.767ZM641.303 239.144H644.687L642.995 234.644L641.303 239.144ZM650.829 235.856C651.685 235.856 652.413 236.16 653.013 236.768C653.621 237.376 653.925 238.12 653.925 239C653.925 239.88 653.621 240.624 653.013 241.232C652.413 241.84 651.685 242.144 650.829 242.144C649.765 242.144 648.957 241.704 648.405 240.824V244.4H647.613V236H648.405V237.176C648.957 236.296 649.765 235.856 650.829 235.856ZM649.089 240.692C649.545 241.148 650.105 241.376 650.769 241.376C651.433 241.376 651.993 241.148 652.449 240.692C652.905 240.228 653.133 239.664 653.133 239C653.133 238.336 652.905 237.776 652.449 237.32C651.993 236.856 651.433 236.624 650.769 236.624C650.105 236.624 649.545 236.856 649.089 237.32C648.633 237.776 648.405 238.336 648.405 239C648.405 239.664 648.633 240.228 649.089 240.692ZM656.034 236.996C656.402 236.268 657.034 235.904 657.93 235.904V236.672C657.386 236.672 656.934 236.832 656.574 237.152C656.214 237.472 656.034 237.976 656.034 238.664V242H655.242V236H656.034V236.996ZM661.896 236.3L662.616 233.6H663.336L662.856 236.3H661.896ZM664.539 242V241.244L667.563 238.196C668.427 237.332 668.859 236.592 668.859 235.976C668.859 235.44 668.691 235.024 668.355 234.728C668.027 234.424 667.631 234.272 667.167 234.272C666.303 234.272 665.675 234.668 665.283 235.46L664.575 235.04C664.839 234.52 665.199 234.128 665.655 233.864C666.111 233.592 666.615 233.456 667.167 233.456C667.839 233.456 668.427 233.684 668.931 234.14C669.443 234.588 669.699 235.2 669.699 235.976C669.699 236.464 669.563 236.932 669.291 237.38C669.019 237.828 668.635 238.3 668.139 238.796L665.739 241.184H669.879V242H664.539ZM673.485 236.984C674.269 236.984 674.933 237.216 675.477 237.68C676.029 238.136 676.305 238.764 676.305 239.564C676.305 240.364 676.029 240.996 675.477 241.46C674.933 241.916 674.269 242.144 673.485 242.144C672.853 242.144 672.289 241.992 671.793 241.688C671.297 241.376 670.961 240.932 670.785 240.356L671.493 239.948C671.613 240.396 671.849 240.74 672.201 240.98C672.561 241.212 672.989 241.328 673.485 241.328C674.061 241.328 674.533 241.176 674.901 240.872C675.277 240.56 675.465 240.124 675.465 239.564C675.465 239.004 675.277 238.572 674.901 238.268C674.533 237.956 674.061 237.8 673.485 237.8H671.205L671.505 233.6H676.005V234.392H672.249L672.069 236.984H673.485Z" fill="#1F2226"/>
<path d="M719.663 233.6V242H718.823V234.872L715.883 239.792H715.763L712.823 234.872V242H711.983V233.6H713.027L715.823 238.28L718.619 233.6H719.663ZM726.621 236H727.413V242H726.621V240.824C726.069 241.704 725.261 242.144 724.197 242.144C723.341 242.144 722.609 241.84 722.001 241.232C721.401 240.624 721.101 239.88 721.101 239C721.101 238.12 721.401 237.376 722.001 236.768C722.609 236.16 723.341 235.856 724.197 235.856C725.261 235.856 726.069 236.296 726.621 237.176V236ZM722.577 240.692C723.033 241.148 723.593 241.376 724.257 241.376C724.921 241.376 725.481 241.148 725.937 240.692C726.393 240.228 726.621 239.664 726.621 239C726.621 238.336 726.393 237.776 725.937 237.32C725.481 236.856 724.921 236.624 724.257 236.624C723.593 236.624 723.033 236.856 722.577 237.32C722.121 237.776 721.893 238.336 721.893 239C721.893 239.664 722.121 240.228 722.577 240.692ZM733.41 236H734.25L731.682 242.552C731.45 243.144 731.118 243.608 730.686 243.944C730.262 244.288 729.786 244.44 729.258 244.4V243.656C729.978 243.736 730.526 243.32 730.902 242.408L731.058 242.036L728.37 236H729.21L731.466 241.028L733.41 236ZM738.087 236.3L738.807 233.6H739.527L739.047 236.3H738.087ZM740.73 242V241.244L743.754 238.196C744.618 237.332 745.05 236.592 745.05 235.976C745.05 235.44 744.882 235.024 744.546 234.728C744.218 234.424 743.822 234.272 743.358 234.272C742.494 234.272 741.866 234.668 741.474 235.46L740.766 235.04C741.03 234.52 741.39 234.128 741.846 233.864C742.302 233.592 742.806 233.456 743.358 233.456C744.03 233.456 744.618 233.684 745.122 234.14C745.634 234.588 745.89 235.2 745.89 235.976C745.89 236.464 745.754 236.932 745.482 237.38C745.21 237.828 744.826 238.3 744.33 238.796L741.93 241.184H746.07V242H740.73ZM749.676 236.984C750.46 236.984 751.124 237.216 751.668 237.68C752.22 238.136 752.496 238.764 752.496 239.564C752.496 240.364 752.22 240.996 751.668 241.46C751.124 241.916 750.46 242.144 749.676 242.144C749.044 242.144 748.48 241.992 747.984 241.688C747.488 241.376 747.152 240.932 746.976 240.356L747.684 239.948C747.804 240.396 748.04 240.74 748.392 240.98C748.752 241.212 749.18 241.328 749.676 241.328C750.252 241.328 750.724 241.176 751.092 240.872C751.468 240.56 751.656 240.124 751.656 239.564C751.656 239.004 751.468 238.572 751.092 238.268C750.724 237.956 750.252 237.8 749.676 237.8H747.396L747.696 233.6H752.196V234.392H748.44L748.26 236.984H749.676Z" fill="#1F2226"/>
<path d="M790.224 242.144C789.64 242.144 789.116 242.024 788.652 241.784C788.196 241.536 787.868 241.176 787.668 240.704L788.376 240.284C788.64 240.98 789.256 241.328 790.224 241.328C790.808 241.328 791.272 241.188 791.616 240.908C791.968 240.628 792.144 240.2 792.144 239.624V233.6H792.984V239.624C792.984 240.44 792.72 241.064 792.192 241.496C791.672 241.928 791.016 242.144 790.224 242.144ZM798.884 236H799.676V242H798.884V241.064C798.436 241.784 797.764 242.144 796.868 242.144C796.14 242.144 795.564 241.924 795.14 241.484C794.724 241.036 794.516 240.436 794.516 239.684V236H795.308V239.684C795.308 240.22 795.448 240.636 795.728 240.932C796.016 241.228 796.42 241.376 796.94 241.376C797.516 241.376 797.984 241.196 798.344 240.836C798.704 240.468 798.884 239.904 798.884 239.144V236ZM804.16 235.856C804.888 235.856 805.46 236.08 805.876 236.528C806.3 236.968 806.512 237.564 806.512 238.316V242H805.72V238.316C805.72 237.78 805.576 237.364 805.288 237.068C805.008 236.772 804.608 236.624 804.088 236.624C803.512 236.624 803.044 236.808 802.684 237.176C802.324 237.536 802.144 238.096 802.144 238.856V242H801.352V236H802.144V236.936C802.592 236.216 803.264 235.856 804.16 235.856ZM810.923 236.3L811.643 233.6H812.363L811.883 236.3H810.923ZM813.566 242V241.244L816.59 238.196C817.454 237.332 817.886 236.592 817.886 235.976C817.886 235.44 817.718 235.024 817.382 234.728C817.054 234.424 816.658 234.272 816.194 234.272C815.33 234.272 814.702 234.668 814.31 235.46L813.602 235.04C813.866 234.52 814.226 234.128 814.682 233.864C815.138 233.592 815.642 233.456 816.194 233.456C816.866 233.456 817.454 233.684 817.958 234.14C818.47 234.588 818.726 235.2 818.726 235.976C818.726 236.464 818.59 236.932 818.318 237.38C818.046 237.828 817.662 238.3 817.166 238.796L814.766 241.184H818.906V242H813.566ZM822.512 236.984C823.296 236.984 823.96 237.216 824.504 237.68C825.056 238.136 825.332 238.764 825.332 239.564C825.332 240.364 825.056 240.996 824.504 241.46C823.96 241.916 823.296 242.144 822.512 242.144C821.88 242.144 821.316 241.992 820.82 241.688C820.324 241.376 819.988 240.932 819.812 240.356L820.52 239.948C820.64 240.396 820.876 240.74 821.228 240.98C821.588 241.212 822.016 241.328 822.512 241.328C823.088 241.328 823.56 241.176 823.928 240.872C824.304 240.56 824.492 240.124 824.492 239.564C824.492 239.004 824.304 238.572 823.928 238.268C823.56 237.956 823.088 237.8 822.512 237.8H820.232L820.532 233.6H825.032V234.392H821.276L821.096 236.984H822.512Z" fill="#1F2226"/>
<path d="M864.333 242.144C863.749 242.144 863.225 242.024 862.761 241.784C862.305 241.536 861.977 241.176 861.777 240.704L862.485 240.284C862.749 240.98 863.365 241.328 864.333 241.328C864.917 241.328 865.381 241.188 865.725 240.908C866.077 240.628 866.253 240.2 866.253 239.624V233.6H867.093V239.624C867.093 240.44 866.829 241.064 866.301 241.496C865.781 241.928 865.125 242.144 864.333 242.144ZM872.994 236H873.786V242H872.994V241.064C872.546 241.784 871.874 242.144 870.978 242.144C870.25 242.144 869.674 241.924 869.25 241.484C868.834 241.036 868.626 240.436 868.626 239.684V236H869.418V239.684C869.418 240.22 869.558 240.636 869.838 240.932C870.126 241.228 870.53 241.376 871.05 241.376C871.626 241.376 872.094 241.196 872.454 240.836C872.814 240.468 872.994 239.904 872.994 239.144V236ZM875.461 242V233.24H876.253V242H875.461ZM880.814 236.3L881.534 233.6H882.254L881.774 236.3H880.814ZM883.457 242V241.244L886.481 238.196C887.345 237.332 887.777 236.592 887.777 235.976C887.777 235.44 887.609 235.024 887.273 234.728C886.945 234.424 886.549 234.272 886.085 234.272C885.221 234.272 884.593 234.668 884.201 235.46L883.493 235.04C883.757 234.52 884.117 234.128 884.573 233.864C885.029 233.592 885.533 233.456 886.085 233.456C886.757 233.456 887.345 233.684 887.849 234.14C888.361 234.588 888.617 235.2 888.617 235.976C888.617 236.464 888.481 236.932 888.209 237.38C887.937 237.828 887.553 238.3 887.057 238.796L884.657 241.184H888.797V242H883.457ZM892.403 236.984C893.187 236.984 893.851 237.216 894.395 237.68C894.947 238.136 895.223 238.764 895.223 239.564C895.223 240.364 894.947 240.996 894.395 241.46C893.851 241.916 893.187 242.144 892.403 242.144C891.771 242.144 891.207 241.992 890.711 241.688C890.215 241.376 889.879 240.932 889.703 240.356L890.411 239.948C890.531 240.396 890.767 240.74 891.119 240.98C891.479 241.212 891.907 241.328 892.403 241.328C892.979 241.328 893.451 241.176 893.819 240.872C894.195 240.56 894.383 240.124 894.383 239.564C894.383 239.004 894.195 238.572 893.819 238.268C893.451 237.956 892.979 237.8 892.403 237.8H890.123L890.423 233.6H894.923V234.392H891.167L890.987 236.984H892.403Z" fill="#1F2226"/>
<path d="M40 126C40 122.686 42.6863 120 46 120H97C100.314 120 103 122.686 103 126V220H40V126Z" fill="#D3D3D3"/>
<path d="M113 61C113 57.6863 115.686 55 119 55H170C173.314 55 176 57.6863 176 61V220H113V61Z" fill="#D3D3D3"/>
<path d="M186 91C186 87.6863 188.686 85 192 85H244C247.314 85 250 87.6863 250 91V220H186V91Z" fill="#D3D3D3"/>
<path d="M260 163C260 159.686 262.686 157 266 157H318C321.314 157 324 159.686 324 163V220H260V163Z" fill="#D3D3D3"/>
<path d="M334 26C334 22.6863 336.686 20 340 20H391C394.314 20 397 22.6863 397 26V220H334V26Z" fill="#D3D3D3"/>
<path d="M407 61C407 57.6863 409.686 55 413 55H464C467.314 55 470 57.6863 470 61V220H407V61Z" fill="#D3D3D3"/>
<path d="M480 131C480 127.686 482.686 125 486 125H537C540.314 125 543 127.686 543 131V220H480V131Z" fill="#D3D3D3"/>
<path d="M553 117C553 113.686 555.686 111 559 111H610C613.314 111 616 113.686 616 117V220H553V117Z" fill="#D3D3D3"/>
<path d="M626 61C626 57.6863 628.686 55 632 55H684C687.314 55 690 57.6863 690 61V220H626V61Z" fill="#D3D3D3"/>
<path d="M700 157C700 153.686 702.686 151 706 151H758C761.314 151 764 153.686 764 157V220H700V157Z" fill="#D3D3D3"/>
<path d="M774 157C774 153.686 776.686 151 780 151H831C834.314 151 837 153.686 837 157V220H774V157Z" fill="#D3D3D3"/>
<path d="M847 157C847 153.686 849.686 151 853 151H904C907.314 151 910 153.686 910 157V220H847V157Z" fill="#D3D3D3"/>
</svg>
